solid PCB_fold_v2
facet normal 0.0 1.0 0.0
  outer loop
    vertex 113.514851 119.48065477238754 6.0
    vertex 116.014851 119.48065477238754 1.9000000000000004
    vertex 113.514851 119.48065477238754 0.1000000000000016
  endloop
endfacet
facet normal 0.0 1.0 0.0
  outer loop
    vertex 116.014851 119.48065477238754 1.9000000000000004
    vertex 113.514851 119.48065477238754 6.0
    vertex 116.014851 119.48065477238754 4.200000000000002
  endloop
endfacet
facet normal 0.0 1.0 0.0
  outer loop
    vertex 116.014851 119.48065477238754 4.200000000000002
    vertex 113.514851 119.48065477238754 6.0
    vertex 121.01485099999998 119.48065477238754 4.200000000000002
  endloop
endfacet
facet normal 0.0 1.0 0.0
  outer loop
    vertex 121.01485099999998 119.48065477238754 4.200000000000002
    vertex 113.514851 119.48065477238754 6.0
    vertex 121.01485099999998 119.48065477238754 6.000000000000002
  endloop
endfacet
facet normal 0.0 1.0 0.0
  outer loop
    vertex 121.01485099999998 119.48065477238754 6.000000000000002
    vertex 113.514851 119.48065477238754 6.0
    vertex 116.014851 119.48065477238754 6.000000000000002
  endloop
endfacet
facet normal 0.0 1.0 0.0
  outer loop
    vertex 113.514851 119.48065477238754 0.1000000000000016
    vertex 121.01485099999998 119.48065477238754 1.9000000000000004
    vertex 121.01485099999998 119.48065477238754 0.10000000000000071
  endloop
endfacet
facet normal 0.0 1.0 0.0
  outer loop
    vertex 121.01485099999998 119.48065477238754 1.9000000000000004
    vertex 113.514851 119.48065477238754 0.1000000000000016
    vertex 116.014851 119.48065477238754 1.9000000000000004
  endloop
endfacet
facet normal 5.849402689853637e-17 2.2884173689707366e-17 1.0
  outer loop
    vertex 113.514851 87.48065477238755 6.000000000000002
    vertex 116.014851 95.48065477238755 6.000000000000001
    vertex 113.514851 119.48065477238754 6.0
  endloop
endfacet
facet normal 5.849402689853637e-17 2.2884173689707366e-17 1.0
  outer loop
    vertex 116.014851 95.48065477238755 6.000000000000001
    vertex 113.514851 87.48065477238755 6.000000000000002
    vertex 119.51485100000001 87.48065477238755 6.000000000000001
  endloop
endfacet
facet normal 5.849402689853637e-17 2.2884173689707366e-17 1.0
  outer loop
    vertex 116.014851 95.48065477238755 6.000000000000001
    vertex 119.51485100000001 87.48065477238755 6.000000000000001
    vertex 119.51485100000001 95.48065477238755 6.0
  endloop
endfacet
facet normal 5.849402689853637e-17 2.2884173689707366e-17 1.0
  outer loop
    vertex 116.014851 95.48065477238755 6.000000000000001
    vertex 116.014851 119.48065477238754 6.000000000000002
    vertex 113.514851 119.48065477238754 6.0
  endloop
endfacet
facet normal 5.849402689853637e-17 2.2884173689707366e-17 1.0
  outer loop
    vertex 116.014851 119.48065477238754 6.000000000000002
    vertex 116.014851 95.48065477238755 6.000000000000001
    vertex 116.014851 104.48065477238754 6.000000000000002
  endloop
endfacet
facet normal -1.4251174483730247e-16 -1.389842708965266e-17 -1.0
  outer loop
    vertex 113.514851 119.48065477238754 0.1000000000000016
    vertex 116.014851 104.48065477238757 0.10000000000000071
    vertex 113.514851 85.48065477238755 0.1000000000000028
  endloop
endfacet
facet normal -1.4251174483730247e-16 -1.389842708965266e-17 -1.0
  outer loop
    vertex 116.014851 104.48065477238757 0.10000000000000071
    vertex 113.514851 119.48065477238754 0.1000000000000016
    vertex 121.01485099999998 119.48065477238754 0.10000000000000071
  endloop
endfacet
facet normal -1.4251174483730247e-16 -1.389842708965266e-17 -1.0
  outer loop
    vertex 116.014851 104.48065477238757 0.10000000000000071
    vertex 121.01485099999998 119.48065477238754 0.10000000000000071
    vertex 121.01485099999998 104.48065477238757 0.10000000000000071
  endloop
endfacet
facet normal -1.4251174483730247e-16 -1.389842708965266e-17 -1.0
  outer loop
    vertex 116.014851 85.48110677238756 0.10000000000000071
    vertex 113.514851 85.48065477238755 0.1000000000000028
    vertex 116.014851 104.48065477238757 0.10000000000000071
  endloop
endfacet
facet normal 0.0 1.0 0.0
  outer loop
    vertex 116.014851 95.48065477238755 6.000000000000001
    vertex 119.51485100000001 95.48065477238755 4.200000000000001
    vertex 116.014851 95.48065477238755 4.200000000000001
  endloop
endfacet
facet normal 0.0 1.0 0.0
  outer loop
    vertex 119.51485100000001 95.48065477238755 4.200000000000001
    vertex 116.014851 95.48065477238755 6.000000000000001
    vertex 119.51485100000001 95.48065477238755 6.0
  endloop
endfacet
facet normal -1.0 -1.0479726910345847e-16 1.6521679496359158e-15
  outer loop
    vertex 113.51485100000002 87.48065477238755 12.999999999999998
    vertex 113.514851 85.48065477238755 0.1000000000000028
    vertex 113.51485100000002 85.48065477238755 12.999999999999998
  endloop
endfacet
facet normal -1.0 -1.0479726910345847e-16 1.6521679496359158e-15
  outer loop
    vertex 113.514851 85.48065477238755 0.1000000000000028
    vertex 113.51485100000002 87.48065477238755 12.999999999999998
    vertex 113.514851 87.48065477238755 6.000000000000002
  endloop
endfacet
facet normal -1.0 -1.0479726910345847e-16 1.6521679496359158e-15
  outer loop
    vertex 113.514851 85.48065477238755 0.1000000000000028
    vertex 113.514851 87.48065477238755 6.000000000000002
    vertex 113.514851 119.48065477238754 0.1000000000000016
  endloop
endfacet
facet normal -1.0 -1.0479726910345847e-16 1.6521679496359158e-15
  outer loop
    vertex 113.514851 119.48065477238754 0.1000000000000016
    vertex 113.514851 87.48065477238755 6.000000000000002
    vertex 113.514851 119.48065477238754 6.0
  endloop
endfacet
facet normal -2.3942521332922887e-46 1.0 1.083021878903119e-31
  outer loop
    vertex 113.514851 87.48065477238755 6.000000000000002
    vertex 116.2560319548975 87.48065477238752 12.034074173710929
    vertex 116.51485100000001 87.48065477238752 11.999999999999998
  endloop
endfacet
facet normal -2.3942521332922887e-46 1.0 1.083021878903119e-31
  outer loop
    vertex 116.2560319548975 87.48065477238752 12.034074173710929
    vertex 113.514851 87.48065477238755 6.000000000000002
    vertex 113.51485100000002 87.48065477238755 12.999999999999998
  endloop
endfacet
facet normal -2.3942521332922887e-46 1.0 1.083021878903119e-31
  outer loop
    vertex 116.2560319548975 87.48065477238752 12.034074173710929
    vertex 113.51485100000002 87.48065477238755 12.999999999999998
    vertex 116.01485100000001 87.48065477238752 12.133974596215559
  endloop
endfacet
facet normal -2.3942521332922887e-46 1.0 1.083021878903119e-31
  outer loop
    vertex 116.01485100000001 87.48065477238752 12.133974596215559
    vertex 113.51485100000002 87.48065477238755 12.999999999999998
    vertex 115.80774421881347 87.48065477238752 12.29289321881345
  endloop
endfacet
facet normal -2.3942521332922887e-46 1.0 1.083021878903119e-31
  outer loop
    vertex 115.80774421881347 87.48065477238752 12.29289321881345
    vertex 113.51485100000002 87.48065477238755 12.999999999999998
    vertex 115.64882559621557 87.48065477238752 12.499999999999996
  endloop
endfacet
facet normal -2.3942521332922887e-46 1.0 1.083021878903119e-31
  outer loop
    vertex 115.64882559621557 87.48065477238752 12.499999999999996
    vertex 113.51485100000002 87.48065477238755 12.999999999999998
    vertex 115.54892517371096 87.48065477238752 12.741180954897478
  endloop
endfacet
facet normal -2.3942521332922887e-46 1.0 1.083021878903119e-31
  outer loop
    vertex 115.54892517371096 87.48065477238752 12.741180954897478
    vertex 113.51485100000002 87.48065477238755 12.999999999999998
    vertex 115.51485100000001 87.48065477238752 12.999999999999998
  endloop
endfacet
facet normal -2.3942521332922887e-46 1.0 1.083021878903119e-31
  outer loop
    vertex 115.51485100000001 87.48065477238752 12.999999999999998
    vertex 113.51485100000002 87.48065477238755 12.999999999999998
    vertex 113.61707352113281 87.48065477238755 13.776457135307561
  endloop
endfacet
facet normal -2.3942521332922887e-46 1.0 1.083021878903119e-31
  outer loop
    vertex 115.51485100000001 87.48065477238752 12.999999999999998
    vertex 113.61707352113281 87.48065477238755 13.776457135307561
    vertex 115.54892517371096 87.48065477238752 13.258819045102518
  endloop
endfacet
facet normal -2.3942521332922887e-46 1.0 1.083021878903119e-31
  outer loop
    vertex 115.54892517371096 87.48065477238752 13.258819045102518
    vertex 113.61707352113281 87.48065477238755 13.776457135307561
    vertex 115.64882559621557 87.48065477238752 13.499999999999998
  endloop
endfacet
facet normal -2.3942521332922887e-46 1.0 1.083021878903119e-31
  outer loop
    vertex 115.64882559621557 87.48065477238752 13.499999999999998
    vertex 113.61707352113281 87.48065477238755 13.776457135307561
    vertex 115.80774421881347 87.48065477238752 13.707106781186544
  endloop
endfacet
facet normal -2.3942521332922887e-46 1.0 1.083021878903119e-31
  outer loop
    vertex 115.80774421881347 87.48065477238752 13.707106781186544
    vertex 113.61707352113281 87.48065477238755 13.776457135307561
    vertex 116.01485100000001 87.48065477238752 13.866025403784437
  endloop
endfacet
facet normal -2.3942521332922887e-46 1.0 1.083021878903119e-31
  outer loop
    vertex 116.01485100000001 87.48065477238752 13.866025403784437
    vertex 113.61707352113281 87.48065477238755 13.776457135307561
    vertex 113.91677478864669 87.48065477238755 14.499999999999998
  endloop
endfacet
facet normal -2.3942521332922887e-46 1.0 1.083021878903119e-31
  outer loop
    vertex 116.01485100000001 87.48065477238752 13.866025403784437
    vertex 113.91677478864669 87.48065477238755 14.499999999999998
    vertex 116.2560319548975 87.48065477238752 13.965925826289066
  endloop
endfacet
facet normal -2.3942521332922887e-46 1.0 1.083021878903119e-31
  outer loop
    vertex 116.2560319548975 87.48065477238752 13.965925826289066
    vertex 113.91677478864669 87.48065477238755 14.499999999999998
    vertex 116.51485100000001 87.48065477238752 13.999999999999996
  endloop
endfacet
facet normal -2.3942521332922887e-46 1.0 1.083021878903119e-31
  outer loop
    vertex 113.514851 87.48065477238755 6.000000000000002
    vertex 119.51485100000001 87.48065477238755 12.999999999999998
    vertex 119.51485100000001 87.48065477238755 6.000000000000001
  endloop
endfacet
facet normal -2.3942521332922887e-46 1.0 1.083021878903119e-31
  outer loop
    vertex 119.51485100000001 87.48065477238755 12.999999999999998
    vertex 113.514851 87.48065477238755 6.000000000000002
    vertex 116.77367004510252 87.48065477238752 12.034074173710929
  endloop
endfacet
facet normal -2.3942521332922887e-46 1.0 1.083021878903119e-31
  outer loop
    vertex 116.77367004510252 87.48065477238752 12.034074173710929
    vertex 113.514851 87.48065477238755 6.000000000000002
    vertex 116.51485100000001 87.48065477238752 11.999999999999998
  endloop
endfacet
facet normal -2.3942521332922887e-46 1.0 1.083021878903119e-31
  outer loop
    vertex 119.51485100000001 87.48065477238755 12.999999999999998
    vertex 116.77367004510252 87.48065477238752 12.034074173710929
    vertex 117.01485100000001 87.48065477238752 12.133974596215559
  endloop
endfacet
facet normal -2.3942521332922887e-46 1.0 1.083021878903119e-31
  outer loop
    vertex 119.51485100000001 87.48065477238755 12.999999999999998
    vertex 117.01485100000001 87.48065477238752 12.133974596215559
    vertex 117.22195778118656 87.48065477238752 12.292893218813452
  endloop
endfacet
facet normal -2.3942521332922887e-46 1.0 1.083021878903119e-31
  outer loop
    vertex 119.51485100000001 87.48065477238755 12.999999999999998
    vertex 117.22195778118656 87.48065477238752 12.292893218813452
    vertex 117.38087640378444 87.48065477238752 12.5
  endloop
endfacet
facet normal -2.3942521332922887e-46 1.0 1.083021878903119e-31
  outer loop
    vertex 119.51485100000001 87.48065477238755 12.999999999999998
    vertex 117.38087640378444 87.48065477238752 12.5
    vertex 117.48077682628907 87.48065477238752 12.741180954897478
  endloop
endfacet
facet normal -2.3942521332922887e-46 1.0 1.083021878903119e-31
  outer loop
    vertex 119.51485100000001 87.48065477238755 12.999999999999998
    vertex 117.48077682628907 87.48065477238752 12.741180954897478
    vertex 117.51485100000001 87.48065477238752 12.999999999999998
  endloop
endfacet
facet normal -2.3942521332922887e-46 1.0 1.083021878903119e-31
  outer loop
    vertex 119.51485100000001 87.48065477238755 12.999999999999998
    vertex 117.51485100000001 87.48065477238752 12.999999999999998
    vertex 117.48077682628907 87.48065477238752 13.258819045102522
  endloop
endfacet
facet normal -2.3942521332922887e-46 1.0 1.083021878903119e-31
  outer loop
    vertex 119.51485100000001 87.48065477238755 12.999999999999998
    vertex 117.48077682628907 87.48065477238752 13.258819045102522
    vertex 119.41262847886722 87.48065477238755 13.776457135307565
  endloop
endfacet
facet normal -2.3942521332922887e-46 1.0 1.083021878903119e-31
  outer loop
    vertex 119.41262847886722 87.48065477238755 13.776457135307565
    vertex 117.48077682628907 87.48065477238752 13.258819045102522
    vertex 117.38087640378444 87.48065477238752 13.499999999999998
  endloop
endfacet
facet normal -2.3942521332922887e-46 1.0 1.083021878903119e-31
  outer loop
    vertex 119.41262847886722 87.48065477238755 13.776457135307565
    vertex 117.38087640378444 87.48065477238752 13.499999999999998
    vertex 117.22195778118656 87.48065477238752 13.707106781186544
  endloop
endfacet
facet normal -2.3942521332922887e-46 1.0 1.083021878903119e-31
  outer loop
    vertex 119.41262847886722 87.48065477238755 13.776457135307565
    vertex 117.22195778118656 87.48065477238752 13.707106781186544
    vertex 117.01485100000001 87.48065477238752 13.866025403784437
  endloop
endfacet
facet normal -2.3942521332922887e-46 1.0 1.083021878903119e-31
  outer loop
    vertex 119.41262847886722 87.48065477238755 13.776457135307565
    vertex 117.01485100000001 87.48065477238752 13.866025403784437
    vertex 119.11292721135334 87.48065477238755 14.499999999999998
  endloop
endfacet
facet normal -2.3942521332922887e-46 1.0 1.083021878903119e-31
  outer loop
    vertex 119.11292721135334 87.48065477238755 14.499999999999998
    vertex 117.01485100000001 87.48065477238752 13.866025403784437
    vertex 116.77367004510252 87.48065477238752 13.965925826289068
  endloop
endfacet
facet normal -2.3942521332922887e-46 1.0 1.083021878903119e-31
  outer loop
    vertex 119.11292721135334 87.48065477238755 14.499999999999998
    vertex 116.77367004510252 87.48065477238752 13.965925826289068
    vertex 116.51485100000001 87.48065477238752 13.999999999999996
  endloop
endfacet
facet normal -2.3942521332922887e-46 1.0 1.083021878903119e-31
  outer loop
    vertex 119.11292721135334 87.48065477238755 14.499999999999998
    vertex 116.51485100000001 87.48065477238752 13.999999999999996
    vertex 113.91677478864669 87.48065477238755 14.499999999999998
  endloop
endfacet
facet normal -2.3942521332922887e-46 1.0 1.083021878903119e-31
  outer loop
    vertex 119.11292721135334 87.48065477238755 14.499999999999998
    vertex 113.91677478864669 87.48065477238755 14.499999999999998
    vertex 114.39353065644036 87.48065477238755 15.12132034355964
  endloop
endfacet
facet normal -2.3942521332922887e-46 1.0 1.083021878903119e-31
  outer loop
    vertex 119.11292721135334 87.48065477238755 14.499999999999998
    vertex 114.39353065644036 87.48065477238755 15.12132034355964
    vertex 118.63617134355965 87.48065477238755 15.12132034355964
  endloop
endfacet
facet normal -2.3942521332922887e-46 1.0 1.083021878903119e-31
  outer loop
    vertex 118.63617134355965 87.48065477238755 15.12132034355964
    vertex 114.39353065644036 87.48065477238755 15.12132034355964
    vertex 115.01485100000001 87.48065477238755 15.598076211353314
  endloop
endfacet
facet normal -2.3942521332922887e-46 1.0 1.083021878903119e-31
  outer loop
    vertex 118.63617134355965 87.48065477238755 15.12132034355964
    vertex 115.01485100000001 87.48065477238755 15.598076211353314
    vertex 118.01485100000001 87.48065477238755 15.598076211353316
  endloop
endfacet
facet normal -2.3942521332922887e-46 1.0 1.083021878903119e-31
  outer loop
    vertex 118.01485100000001 87.48065477238755 15.598076211353316
    vertex 115.01485100000001 87.48065477238755 15.598076211353314
    vertex 115.73839386469245 87.48065477238755 15.897777478867203
  endloop
endfacet
facet normal -2.3942521332922887e-46 1.0 1.083021878903119e-31
  outer loop
    vertex 118.01485100000001 87.48065477238755 15.598076211353316
    vertex 115.73839386469245 87.48065477238755 15.897777478867203
    vertex 117.29130813530757 87.48065477238755 15.897777478867203
  endloop
endfacet
facet normal -2.3942521332922887e-46 1.0 1.083021878903119e-31
  outer loop
    vertex 117.29130813530757 87.48065477238755 15.897777478867203
    vertex 115.73839386469245 87.48065477238755 15.897777478867203
    vertex 116.51485100000001 87.48065477238755 15.999999999999998
  endloop
endfacet
facet normal -0.9914448613738114 0.0 0.1305261922200446
  outer loop
    vertex 113.61707352113281 87.48065477238755 13.776457135307561
    vertex 113.51485100000002 85.48065477238755 12.999999999999998
    vertex 113.61707352113281 85.48065477238755 13.776457135307561
  endloop
endfacet
facet normal -0.9914448613738114 0.0 0.1305261922200446
  outer loop
    vertex 113.51485100000002 85.48065477238755 12.999999999999998
    vertex 113.61707352113281 87.48065477238755 13.776457135307561
    vertex 113.51485100000002 87.48065477238755 12.999999999999998
  endloop
endfacet
facet normal -0.92387953251129 0.0 0.3826834323650821
  outer loop
    vertex 113.91677478864669 87.48065477238755 14.499999999999998
    vertex 113.61707352113281 85.48065477238755 13.776457135307561
    vertex 113.91677478864669 85.48065477238755 14.499999999999998
  endloop
endfacet
facet normal -0.92387953251129 0.0 0.3826834323650821
  outer loop
    vertex 113.61707352113281 85.48065477238755 13.776457135307561
    vertex 113.91677478864669 87.48065477238755 14.499999999999998
    vertex 113.61707352113281 87.48065477238755 13.776457135307561
  endloop
endfacet
facet normal -0.7933533402912337 0.0 0.6087614290087224
  outer loop
    vertex 114.39353065644036 87.48065477238755 15.12132034355964
    vertex 113.91677478864669 85.48065477238755 14.499999999999998
    vertex 114.39353065644036 85.48065477238755 15.12132034355964
  endloop
endfacet
facet normal -0.7933533402912337 0.0 0.6087614290087224
  outer loop
    vertex 113.91677478864669 85.48065477238755 14.499999999999998
    vertex 114.39353065644036 87.48065477238755 15.12132034355964
    vertex 113.91677478864669 87.48065477238755 14.499999999999998
  endloop
endfacet
facet normal -0.608761429008715 0.0 0.7933533402912395
  outer loop
    vertex 115.01485100000001 85.48065477238755 15.598076211353314
    vertex 114.39353065644036 87.48065477238755 15.12132034355964
    vertex 114.39353065644036 85.48065477238755 15.12132034355964
  endloop
endfacet
facet normal -0.608761429008715 0.0 0.7933533402912395
  outer loop
    vertex 114.39353065644036 87.48065477238755 15.12132034355964
    vertex 115.01485100000001 85.48065477238755 15.598076211353314
    vertex 115.01485100000001 87.48065477238755 15.598076211353314
  endloop
endfacet
facet normal -0.38268343236509006 0.0 0.9238795325112867
  outer loop
    vertex 115.73839386469245 85.48065477238755 15.897777478867203
    vertex 115.01485100000001 87.48065477238755 15.598076211353314
    vertex 115.01485100000001 85.48065477238755 15.598076211353314
  endloop
endfacet
facet normal -0.38268343236509006 0.0 0.9238795325112867
  outer loop
    vertex 115.01485100000001 87.48065477238755 15.598076211353314
    vertex 115.73839386469245 85.48065477238755 15.897777478867203
    vertex 115.73839386469245 87.48065477238755 15.897777478867203
  endloop
endfacet
facet normal -0.13052619222005263 0.0 0.9914448613738103
  outer loop
    vertex 116.51485100000001 85.48065477238755 15.999999999999998
    vertex 115.73839386469245 87.48065477238755 15.897777478867203
    vertex 115.73839386469245 85.48065477238755 15.897777478867203
  endloop
endfacet
facet normal -0.13052619222005263 0.0 0.9914448613738103
  outer loop
    vertex 115.73839386469245 87.48065477238755 15.897777478867203
    vertex 116.51485100000001 85.48065477238755 15.999999999999998
    vertex 116.51485100000001 87.48065477238755 15.999999999999998
  endloop
endfacet
facet normal 0.13052619222005263 0.0 0.9914448613738103
  outer loop
    vertex 117.29130813530757 85.48065477238755 15.897777478867203
    vertex 116.51485100000001 87.48065477238755 15.999999999999998
    vertex 116.51485100000001 85.48065477238755 15.999999999999998
  endloop
endfacet
facet normal 0.13052619222005263 0.0 0.9914448613738103
  outer loop
    vertex 116.51485100000001 87.48065477238755 15.999999999999998
    vertex 117.29130813530757 85.48065477238755 15.897777478867203
    vertex 117.29130813530757 87.48065477238755 15.897777478867203
  endloop
endfacet
facet normal 0.38268343236508695 0.0 0.923879532511288
  outer loop
    vertex 118.01485100000001 85.48065477238755 15.598076211353316
    vertex 117.29130813530757 87.48065477238755 15.897777478867203
    vertex 117.29130813530757 85.48065477238755 15.897777478867203
  endloop
endfacet
facet normal 0.38268343236508695 0.0 0.923879532511288
  outer loop
    vertex 117.29130813530757 87.48065477238755 15.897777478867203
    vertex 118.01485100000001 85.48065477238755 15.598076211353316
    vertex 118.01485100000001 87.48065477238755 15.598076211353316
  endloop
endfacet
facet normal 0.6087614290087172 0.0 0.7933533402912378
  outer loop
    vertex 118.63617134355965 85.48065477238755 15.12132034355964
    vertex 118.01485100000001 87.48065477238755 15.598076211353316
    vertex 118.01485100000001 85.48065477238755 15.598076211353316
  endloop
endfacet
facet normal 0.6087614290087172 0.0 0.7933533402912378
  outer loop
    vertex 118.01485100000001 87.48065477238755 15.598076211353316
    vertex 118.63617134355965 85.48065477238755 15.12132034355964
    vertex 118.63617134355965 87.48065477238755 15.12132034355964
  endloop
endfacet
facet normal 0.7933533402912337 0.0 0.6087614290087224
  outer loop
    vertex 119.11292721135334 87.48065477238755 14.499999999999998
    vertex 118.63617134355965 85.48065477238755 15.12132034355964
    vertex 119.11292721135334 85.48065477238755 14.499999999999998
  endloop
endfacet
facet normal 0.7933533402912337 0.0 0.6087614290087224
  outer loop
    vertex 118.63617134355965 85.48065477238755 15.12132034355964
    vertex 119.11292721135334 87.48065477238755 14.499999999999998
    vertex 118.63617134355965 87.48065477238755 15.12132034355964
  endloop
endfacet
facet normal 0.9238795325112894 0.0 0.38268343236508334
  outer loop
    vertex 119.41262847886722 87.48065477238755 13.776457135307565
    vertex 119.11292721135334 85.48065477238755 14.499999999999998
    vertex 119.41262847886722 85.48065477238755 13.776457135307565
  endloop
endfacet
facet normal 0.9238795325112894 0.0 0.38268343236508334
  outer loop
    vertex 119.11292721135334 85.48065477238755 14.499999999999998
    vertex 119.41262847886722 87.48065477238755 13.776457135307565
    vertex 119.11292721135334 87.48065477238755 14.499999999999998
  endloop
endfacet
facet normal 0.9914448613738114 0.0 0.13052619222004413
  outer loop
    vertex 119.51485100000001 87.48065477238755 12.999999999999998
    vertex 119.41262847886722 85.48065477238755 13.776457135307565
    vertex 119.51485100000001 85.48065477238755 12.999999999999998
  endloop
endfacet
facet normal 0.9914448613738114 0.0 0.13052619222004413
  outer loop
    vertex 119.41262847886722 85.48065477238755 13.776457135307565
    vertex 119.51485100000001 87.48065477238755 12.999999999999998
    vertex 119.41262847886722 87.48065477238755 13.776457135307565
  endloop
endfacet
facet normal 0.6087614290087128 -1.0514855216589286e-30 0.7933533402912413
  outer loop
    vertex 116.01485100000001 85.48065477238755 12.133974596215559
    vertex 115.80774421881347 87.48065477238752 12.29289321881345
    vertex 115.80774421881347 85.48065477238755 12.29289321881345
  endloop
endfacet
facet normal 0.6087614290087128 -1.0514855216589286e-30 0.7933533402912413
  outer loop
    vertex 115.80774421881347 87.48065477238752 12.29289321881345
    vertex 116.01485100000001 85.48065477238755 12.133974596215559
    vertex 116.01485100000001 87.48065477238752 12.133974596215559
  endloop
endfacet
facet normal 0.38268343236507985 -1.2244808244407502e-30 0.923879532511291
  outer loop
    vertex 116.2560319548975 85.48065477238755 12.034074173710929
    vertex 116.01485100000001 87.48065477238752 12.133974596215559
    vertex 116.01485100000001 85.48065477238755 12.133974596215559
  endloop
endfacet
facet normal 0.38268343236507985 -1.2244808244407502e-30 0.923879532511291
  outer loop
    vertex 116.01485100000001 87.48065477238752 12.133974596215559
    vertex 116.2560319548975 85.48065477238755 12.034074173710929
    vertex 116.2560319548975 87.48065477238752 12.034074173710929
  endloop
endfacet
facet normal 0.13052619222005635 -1.3140297825871705e-30 0.9914448613738099
  outer loop
    vertex 116.51485100000001 85.48065477238755 11.999999999999998
    vertex 116.2560319548975 87.48065477238752 12.034074173710929
    vertex 116.2560319548975 85.48065477238755 12.034074173710929
  endloop
endfacet
facet normal 0.13052619222005635 -1.3140297825871705e-30 0.9914448613738099
  outer loop
    vertex 116.2560319548975 87.48065477238752 12.034074173710929
    vertex 116.51485100000001 85.48065477238755 11.999999999999998
    vertex 116.51485100000001 87.48065477238752 11.999999999999998
  endloop
endfacet
facet normal -0.13052619222005635 -1.3140297825871705e-30 0.9914448613738099
  outer loop
    vertex 116.77367004510252 85.48065477238755 12.034074173710929
    vertex 116.51485100000001 87.48065477238752 11.999999999999998
    vertex 116.51485100000001 85.48065477238755 11.999999999999998
  endloop
endfacet
facet normal -0.13052619222005635 -1.3140297825871705e-30 0.9914448613738099
  outer loop
    vertex 116.51485100000001 87.48065477238752 11.999999999999998
    vertex 116.77367004510252 85.48065477238755 12.034074173710929
    vertex 116.77367004510252 87.48065477238752 12.034074173710929
  endloop
endfacet
facet normal -0.38268343236507985 -1.2244808244407507e-30 0.923879532511291
  outer loop
    vertex 117.01485100000001 85.48065477238755 12.133974596215559
    vertex 116.77367004510252 87.48065477238752 12.034074173710929
    vertex 116.77367004510252 85.48065477238755 12.034074173710929
  endloop
endfacet
facet normal -0.38268343236507985 -1.2244808244407507e-30 0.923879532511291
  outer loop
    vertex 116.77367004510252 87.48065477238752 12.034074173710929
    vertex 117.01485100000001 85.48065477238755 12.133974596215559
    vertex 117.01485100000001 87.48065477238752 12.133974596215559
  endloop
endfacet
facet normal -0.6087614290087161 -1.051485521658926e-30 0.7933533402912386
  outer loop
    vertex 117.22195778118656 85.48065477238755 12.292893218813452
    vertex 117.01485100000001 87.48065477238752 12.133974596215559
    vertex 117.01485100000001 85.48065477238755 12.133974596215559
  endloop
endfacet
facet normal -0.6087614290087161 -1.051485521658926e-30 0.7933533402912386
  outer loop
    vertex 117.01485100000001 87.48065477238752 12.133974596215559
    vertex 117.22195778118656 85.48065477238755 12.292893218813452
    vertex 117.22195778118656 87.48065477238752 12.292893218813452
  endloop
endfacet
facet normal -0.7933533402912477 -8.068332182380046e-31 0.6087614290087043
  outer loop
    vertex 117.38087640378444 87.48065477238752 12.5
    vertex 117.22195778118656 85.48065477238755 12.292893218813452
    vertex 117.38087640378444 85.48065477238755 12.5
  endloop
endfacet
facet normal -0.7933533402912477 -8.068332182380046e-31 0.6087614290087043
  outer loop
    vertex 117.22195778118656 85.48065477238755 12.292893218813452
    vertex 117.38087640378444 87.48065477238752 12.5
    vertex 117.22195778118656 87.48065477238752 12.292893218813452
  endloop
endfacet
facet normal -0.92387953251129 -5.071965643491357e-31 0.38268343236508207
  outer loop
    vertex 117.48077682628907 87.48065477238752 12.741180954897478
    vertex 117.38087640378444 85.48065477238755 12.5
    vertex 117.48077682628907 85.48065477238755 12.741180954897478
  endloop
endfacet
facet normal -0.92387953251129 -5.071965643491357e-31 0.38268343236508207
  outer loop
    vertex 117.38087640378444 85.48065477238755 12.5
    vertex 117.48077682628907 87.48065477238752 12.741180954897478
    vertex 117.38087640378444 87.48065477238752 12.5
  endloop
endfacet
facet normal -0.9914448613738077 -1.7299530278185338e-31 0.13052619222007342
  outer loop
    vertex 117.51485100000001 87.48065477238752 12.999999999999998
    vertex 117.48077682628907 85.48065477238755 12.741180954897478
    vertex 117.51485100000001 85.48065477238755 12.999999999999998
  endloop
endfacet
facet normal -0.9914448613738077 -1.7299530278185338e-31 0.13052619222007342
  outer loop
    vertex 117.48077682628907 85.48065477238755 12.741180954897478
    vertex 117.51485100000001 87.48065477238752 12.999999999999998
    vertex 117.48077682628907 87.48065477238752 12.741180954897478
  endloop
endfacet
facet normal -0.9914448613738077 1.7299530278185022e-31 -0.13052619222007197
  outer loop
    vertex 117.48077682628907 87.48065477238752 13.258819045102522
    vertex 117.51485100000001 85.48065477238755 12.999999999999998
    vertex 117.48077682628907 85.48065477238755 13.258819045102522
  endloop
endfacet
facet normal -0.9914448613738077 1.7299530278185022e-31 -0.13052619222007197
  outer loop
    vertex 117.51485100000001 85.48065477238755 12.999999999999998
    vertex 117.48077682628907 87.48065477238752 13.258819045102522
    vertex 117.51485100000001 87.48065477238752 12.999999999999998
  endloop
endfacet
facet normal -0.9238795325112884 5.071965643491396e-31 -0.38268343236508595
  outer loop
    vertex 117.38087640378444 87.48065477238752 13.499999999999998
    vertex 117.48077682628907 85.48065477238755 13.258819045102522
    vertex 117.38087640378444 85.48065477238755 13.499999999999998
  endloop
endfacet
facet normal -0.9238795325112884 5.071965643491396e-31 -0.38268343236508595
  outer loop
    vertex 117.48077682628907 85.48065477238755 13.258819045102522
    vertex 117.38087640378444 87.48065477238752 13.499999999999998
    vertex 117.48077682628907 87.48065477238752 13.258819045102522
  endloop
endfacet
facet normal -0.7933533402912477 8.068332182380035e-31 -0.6087614290087043
  outer loop
    vertex 117.22195778118656 87.48065477238752 13.707106781186544
    vertex 117.38087640378444 85.48065477238755 13.499999999999998
    vertex 117.22195778118656 85.48065477238755 13.707106781186544
  endloop
endfacet
facet normal -0.7933533402912477 8.068332182380035e-31 -0.6087614290087043
  outer loop
    vertex 117.38087640378444 85.48065477238755 13.499999999999998
    vertex 117.22195778118656 87.48065477238752 13.707106781186544
    vertex 117.38087640378444 87.48065477238752 13.499999999999998
  endloop
endfacet
facet normal -0.6087614290087195 1.0514855216589218e-30 -0.793353340291236
  outer loop
    vertex 117.22195778118656 87.48065477238752 13.707106781186544
    vertex 117.01485100000001 85.48065477238755 13.866025403784437
    vertex 117.01485100000001 87.48065477238752 13.866025403784437
  endloop
endfacet
facet normal -0.6087614290087195 1.0514855216589218e-30 -0.793353340291236
  outer loop
    vertex 117.01485100000001 85.48065477238755 13.866025403784437
    vertex 117.22195778118656 87.48065477238752 13.707106781186544
    vertex 117.22195778118656 85.48065477238755 13.707106781186544
  endloop
endfacet
facet normal -0.38268343236507985 1.2244808244407502e-30 -0.923879532511291
  outer loop
    vertex 117.01485100000001 87.48065477238752 13.866025403784437
    vertex 116.77367004510252 85.48065477238755 13.965925826289068
    vertex 116.77367004510252 87.48065477238752 13.965925826289068
  endloop
endfacet
facet normal -0.38268343236507985 1.2244808244407502e-30 -0.923879532511291
  outer loop
    vertex 116.77367004510252 85.48065477238755 13.965925826289068
    vertex 117.01485100000001 87.48065477238752 13.866025403784437
    vertex 117.01485100000001 85.48065477238755 13.866025403784437
  endloop
endfacet
facet normal -0.13052619222004574 1.3140297825871723e-30 -0.9914448613738113
  outer loop
    vertex 116.77367004510252 87.48065477238752 13.965925826289068
    vertex 116.51485100000001 85.48065477238755 13.999999999999996
    vertex 116.51485100000001 87.48065477238752 13.999999999999996
  endloop
endfacet
facet normal -0.13052619222004574 1.3140297825871723e-30 -0.9914448613738113
  outer loop
    vertex 116.51485100000001 85.48065477238755 13.999999999999996
    vertex 116.77367004510252 87.48065477238752 13.965925826289068
    vertex 116.77367004510252 85.48065477238755 13.965925826289068
  endloop
endfacet
facet normal 0.13052619222005635 1.3140297825871705e-30 -0.9914448613738099
  outer loop
    vertex 116.51485100000001 87.48065477238752 13.999999999999996
    vertex 116.2560319548975 85.48065477238755 13.965925826289066
    vertex 116.2560319548975 87.48065477238752 13.965925826289066
  endloop
endfacet
facet normal 0.13052619222005635 1.3140297825871705e-30 -0.9914448613738099
  outer loop
    vertex 116.2560319548975 85.48065477238755 13.965925826289066
    vertex 116.51485100000001 87.48065477238752 13.999999999999996
    vertex 116.51485100000001 85.48065477238755 13.999999999999996
  endloop
endfacet
facet normal 0.38268343236507063 1.2244808244407556e-30 -0.9238795325112947
  outer loop
    vertex 116.2560319548975 87.48065477238752 13.965925826289066
    vertex 116.01485100000001 85.48065477238755 13.866025403784437
    vertex 116.01485100000001 87.48065477238752 13.866025403784437
  endloop
endfacet
facet normal 0.38268343236507063 1.2244808244407556e-30 -0.9238795325112947
  outer loop
    vertex 116.01485100000001 85.48065477238755 13.866025403784437
    vertex 116.2560319548975 87.48065477238752 13.965925826289066
    vertex 116.2560319548975 85.48065477238755 13.965925826289066
  endloop
endfacet
facet normal 0.6087614290087195 1.0514855216589225e-30 -0.793353340291236
  outer loop
    vertex 116.01485100000001 87.48065477238752 13.866025403784437
    vertex 115.80774421881347 85.48065477238755 13.707106781186544
    vertex 115.80774421881347 87.48065477238752 13.707106781186544
  endloop
endfacet
facet normal 0.6087614290087195 1.0514855216589225e-30 -0.793353340291236
  outer loop
    vertex 115.80774421881347 85.48065477238755 13.707106781186544
    vertex 116.01485100000001 87.48065477238752 13.866025403784437
    vertex 116.01485100000001 85.48065477238755 13.866025403784437
  endloop
endfacet
facet normal 0.7933533402912477 8.068332182380046e-31 -0.6087614290087043
  outer loop
    vertex 115.64882559621557 87.48065477238752 13.499999999999998
    vertex 115.80774421881347 85.48065477238755 13.707106781186544
    vertex 115.64882559621557 85.48065477238755 13.499999999999998
  endloop
endfacet
facet normal 0.7933533402912477 8.068332182380046e-31 -0.6087614290087043
  outer loop
    vertex 115.80774421881347 85.48065477238755 13.707106781186544
    vertex 115.64882559621557 87.48065477238752 13.499999999999998
    vertex 115.80774421881347 87.48065477238752 13.707106781186544
  endloop
endfacet
facet normal 0.92387953251129 5.071965643491357e-31 -0.38268343236508207
  outer loop
    vertex 115.54892517371096 87.48065477238752 13.258819045102518
    vertex 115.64882559621557 85.48065477238755 13.499999999999998
    vertex 115.54892517371096 85.48065477238755 13.258819045102518
  endloop
endfacet
facet normal 0.92387953251129 5.071965643491357e-31 -0.38268343236508207
  outer loop
    vertex 115.64882559621557 85.48065477238755 13.499999999999998
    vertex 115.54892517371096 87.48065477238752 13.258819045102518
    vertex 115.64882559621557 87.48065477238752 13.499999999999998
  endloop
endfacet
facet normal 0.9914448613738077 1.7299530278185338e-31 -0.13052619222007342
  outer loop
    vertex 115.51485100000001 87.48065477238752 12.999999999999998
    vertex 115.54892517371096 85.48065477238755 13.258819045102518
    vertex 115.51485100000001 85.48065477238755 12.999999999999998
  endloop
endfacet
facet normal 0.9914448613738077 1.7299530278185338e-31 -0.13052619222007342
  outer loop
    vertex 115.54892517371096 85.48065477238755 13.258819045102518
    vertex 115.51485100000001 87.48065477238752 12.999999999999998
    vertex 115.54892517371096 87.48065477238752 13.258819045102518
  endloop
endfacet
facet normal 0.9914448613738077 -1.729953027818521e-31 0.13052619222007342
  outer loop
    vertex 115.54892517371096 87.48065477238752 12.741180954897478
    vertex 115.51485100000001 85.48065477238755 12.999999999999998
    vertex 115.54892517371096 85.48065477238755 12.741180954897478
  endloop
endfacet
facet normal 0.9914448613738077 -1.729953027818521e-31 0.13052619222007342
  outer loop
    vertex 115.51485100000001 85.48065477238755 12.999999999999998
    vertex 115.54892517371096 87.48065477238752 12.741180954897478
    vertex 115.51485100000001 87.48065477238752 12.999999999999998
  endloop
endfacet
facet normal 0.9238795325112907 -5.07196564349132e-31 0.3826834323650802
  outer loop
    vertex 115.64882559621557 87.48065477238752 12.499999999999996
    vertex 115.54892517371096 85.48065477238755 12.741180954897478
    vertex 115.64882559621557 85.48065477238755 12.499999999999996
  endloop
endfacet
facet normal 0.9238795325112907 -5.07196564349132e-31 0.3826834323650802
  outer loop
    vertex 115.54892517371096 85.48065477238755 12.741180954897478
    vertex 115.64882559621557 87.48065477238752 12.499999999999996
    vertex 115.54892517371096 87.48065477238752 12.741180954897478
  endloop
endfacet
facet normal 0.7933533402912477 -8.068332182380035e-31 0.6087614290087043
  outer loop
    vertex 115.80774421881347 87.48065477238752 12.29289321881345
    vertex 115.64882559621557 85.48065477238755 12.499999999999996
    vertex 115.80774421881347 85.48065477238755 12.29289321881345
  endloop
endfacet
facet normal 0.7933533402912477 -8.068332182380035e-31 0.6087614290087043
  outer loop
    vertex 115.64882559621557 85.48065477238755 12.499999999999996
    vertex 115.80774421881347 87.48065477238752 12.29289321881345
    vertex 115.64882559621557 87.48065477238752 12.499999999999996
  endloop
endfacet
facet normal 1.0 0.0 0.0
  outer loop
    vertex 116.014851 85.48110677238756 0.10000000000000071
    vertex 116.014851 85.48065477238755 4.200000000000001
    vertex 116.014851 85.48065477238755 2.0
  endloop
endfacet
facet normal 1.0 0.0 0.0
  outer loop
    vertex 116.014851 85.48065477238755 4.200000000000001
    vertex 116.014851 85.48110677238756 0.10000000000000071
    vertex 116.014851 95.48065477238755 4.200000000000001
  endloop
endfacet
facet normal 1.0 0.0 0.0
  outer loop
    vertex 116.014851 95.48065477238755 4.200000000000001
    vertex 116.014851 85.48110677238756 0.10000000000000071
    vertex 116.014851 104.48065477238757 0.10000000000000071
  endloop
endfacet
facet normal 1.0 0.0 0.0
  outer loop
    vertex 116.014851 95.48065477238755 4.200000000000001
    vertex 116.014851 104.48065477238757 0.10000000000000071
    vertex 116.014851 95.48065477238755 6.000000000000001
  endloop
endfacet
facet normal 1.0 0.0 0.0
  outer loop
    vertex 116.014851 95.48065477238755 6.000000000000001
    vertex 116.014851 104.48065477238757 0.10000000000000071
    vertex 116.014851 104.48065477238754 4.200000000000002
  endloop
endfacet
facet normal 1.0 0.0 0.0
  outer loop
    vertex 116.014851 104.48065477238754 4.200000000000002
    vertex 116.014851 104.48065477238757 0.10000000000000071
    vertex 116.014851 104.48065477238757 1.9000000000000004
  endloop
endfacet
facet normal 1.0 0.0 0.0
  outer loop
    vertex 116.014851 104.48065477238754 4.200000000000002
    vertex 116.014851 104.48065477238757 1.9000000000000004
    vertex 116.014851 119.48065477238754 4.200000000000002
  endloop
endfacet
facet normal 1.0 0.0 0.0
  outer loop
    vertex 116.014851 119.48065477238754 4.200000000000002
    vertex 116.014851 104.48065477238757 1.9000000000000004
    vertex 116.014851 119.48065477238754 1.9000000000000004
  endloop
endfacet
facet normal 1.0 0.0 0.0
  outer loop
    vertex 116.014851 104.48065477238754 6.000000000000002
    vertex 116.014851 95.48065477238755 6.000000000000001
    vertex 116.014851 104.48065477238754 4.200000000000002
  endloop
endfacet
facet normal 0.0 -1.0 0.0
  outer loop
    vertex 121.01485099999998 104.48065477238757 1.9000000000000004
    vertex 116.014851 104.48065477238757 0.10000000000000071
    vertex 121.01485099999998 104.48065477238757 0.10000000000000071
  endloop
endfacet
facet normal 0.0 -1.0 0.0
  outer loop
    vertex 116.014851 104.48065477238757 0.10000000000000071
    vertex 121.01485099999998 104.48065477238757 1.9000000000000004
    vertex 116.014851 104.48065477238757 1.9000000000000004
  endloop
endfacet
facet normal 0.0 0.0 1.0
  outer loop
    vertex 121.01485099999998 104.48065477238757 1.9000000000000004
    vertex 116.014851 119.48065477238754 1.9000000000000004
    vertex 116.014851 104.48065477238757 1.9000000000000004
  endloop
endfacet
facet normal 0.0 0.0 1.0
  outer loop
    vertex 116.014851 119.48065477238754 1.9000000000000004
    vertex 121.01485099999998 104.48065477238757 1.9000000000000004
    vertex 121.01485099999998 119.48065477238754 1.9000000000000004
  endloop
endfacet
facet normal 1.0 0.0 0.0
  outer loop
    vertex 121.01485099999998 119.48065477238754 0.10000000000000071
    vertex 121.01485099999998 104.48065477238757 1.9000000000000004
    vertex 121.01485099999998 104.48065477238757 0.10000000000000071
  endloop
endfacet
facet normal 1.0 0.0 0.0
  outer loop
    vertex 121.01485099999998 104.48065477238757 1.9000000000000004
    vertex 121.01485099999998 119.48065477238754 0.10000000000000071
    vertex 121.01485099999998 119.48065477238754 1.9000000000000004
  endloop
endfacet
facet normal -4.939155248091613e-08 -0.9999999999731932 -7.32195360964815e-06
  outer loop
    vertex 119.51485100000001 85.48065477238755 12.999999999999998
    vertex 116.014851 85.48065477238755 4.200000000000001
    vertex 119.51485100000001 85.48065477238755 4.200000000000001
  endloop
endfacet
facet normal -4.939155248091613e-08 -0.9999999999731932 -7.32195360964815e-06
  outer loop
    vertex 116.014851 85.48065477238755 4.200000000000001
    vertex 119.51485100000001 85.48065477238755 12.999999999999998
    vertex 116.77367004510252 85.48065477238755 12.034074173710929
  endloop
endfacet
facet normal -4.939155248091613e-08 -0.9999999999731932 -7.32195360964815e-06
  outer loop
    vertex 116.014851 85.48065477238755 4.200000000000001
    vertex 116.77367004510252 85.48065477238755 12.034074173710929
    vertex 116.51485100000001 85.48065477238755 11.999999999999998
  endloop
endfacet
facet normal -4.939155248091613e-08 -0.9999999999731932 -7.32195360964815e-06
  outer loop
    vertex 116.77367004510252 85.48065477238755 12.034074173710929
    vertex 119.51485100000001 85.48065477238755 12.999999999999998
    vertex 117.01485100000001 85.48065477238755 12.133974596215559
  endloop
endfacet
facet normal -4.939155248091613e-08 -0.9999999999731932 -7.32195360964815e-06
  outer loop
    vertex 117.01485100000001 85.48065477238755 12.133974596215559
    vertex 119.51485100000001 85.48065477238755 12.999999999999998
    vertex 117.22195778118656 85.48065477238755 12.292893218813452
  endloop
endfacet
facet normal -4.939155248091613e-08 -0.9999999999731932 -7.32195360964815e-06
  outer loop
    vertex 117.22195778118656 85.48065477238755 12.292893218813452
    vertex 119.51485100000001 85.48065477238755 12.999999999999998
    vertex 117.38087640378444 85.48065477238755 12.5
  endloop
endfacet
facet normal -4.939155248091613e-08 -0.9999999999731932 -7.32195360964815e-06
  outer loop
    vertex 117.38087640378444 85.48065477238755 12.5
    vertex 119.51485100000001 85.48065477238755 12.999999999999998
    vertex 117.48077682628907 85.48065477238755 12.741180954897478
  endloop
endfacet
facet normal -4.939155248091613e-08 -0.9999999999731932 -7.32195360964815e-06
  outer loop
    vertex 117.48077682628907 85.48065477238755 12.741180954897478
    vertex 119.51485100000001 85.48065477238755 12.999999999999998
    vertex 117.51485100000001 85.48065477238755 12.999999999999998
  endloop
endfacet
facet normal -4.939155248091613e-08 -0.9999999999731932 -7.32195360964815e-06
  outer loop
    vertex 117.51485100000001 85.48065477238755 12.999999999999998
    vertex 119.51485100000001 85.48065477238755 12.999999999999998
    vertex 119.41262847886722 85.48065477238755 13.776457135307565
  endloop
endfacet
facet normal -4.939155248091613e-08 -0.9999999999731932 -7.32195360964815e-06
  outer loop
    vertex 117.51485100000001 85.48065477238755 12.999999999999998
    vertex 119.41262847886722 85.48065477238755 13.776457135307565
    vertex 117.48077682628907 85.48065477238755 13.258819045102522
  endloop
endfacet
facet normal -4.939155248091613e-08 -0.9999999999731932 -7.32195360964815e-06
  outer loop
    vertex 117.48077682628907 85.48065477238755 13.258819045102522
    vertex 119.41262847886722 85.48065477238755 13.776457135307565
    vertex 117.38087640378444 85.48065477238755 13.499999999999998
  endloop
endfacet
facet normal -4.939155248091613e-08 -0.9999999999731932 -7.32195360964815e-06
  outer loop
    vertex 117.38087640378444 85.48065477238755 13.499999999999998
    vertex 119.41262847886722 85.48065477238755 13.776457135307565
    vertex 117.22195778118656 85.48065477238755 13.707106781186544
  endloop
endfacet
facet normal -4.939155248091613e-08 -0.9999999999731932 -7.32195360964815e-06
  outer loop
    vertex 117.22195778118656 85.48065477238755 13.707106781186544
    vertex 119.41262847886722 85.48065477238755 13.776457135307565
    vertex 117.01485100000001 85.48065477238755 13.866025403784437
  endloop
endfacet
facet normal -4.939155248091613e-08 -0.9999999999731932 -7.32195360964815e-06
  outer loop
    vertex 117.01485100000001 85.48065477238755 13.866025403784437
    vertex 119.41262847886722 85.48065477238755 13.776457135307565
    vertex 119.11292721135334 85.48065477238755 14.499999999999998
  endloop
endfacet
facet normal -4.939155248091613e-08 -0.9999999999731932 -7.32195360964815e-06
  outer loop
    vertex 117.01485100000001 85.48065477238755 13.866025403784437
    vertex 119.11292721135334 85.48065477238755 14.499999999999998
    vertex 116.77367004510252 85.48065477238755 13.965925826289068
  endloop
endfacet
facet normal -4.939155248091613e-08 -0.9999999999731932 -7.32195360964815e-06
  outer loop
    vertex 116.77367004510252 85.48065477238755 13.965925826289068
    vertex 119.11292721135334 85.48065477238755 14.499999999999998
    vertex 116.51485100000001 85.48065477238755 13.999999999999996
  endloop
endfacet
facet normal -4.939155248091613e-08 -0.9999999999731932 -7.32195360964815e-06
  outer loop
    vertex 116.014851 85.48065477238755 2.0
    vertex 113.514851 85.48065477238755 0.1000000000000028
    vertex 116.014851 85.48110677238756 0.10000000000000071
  endloop
endfacet
facet normal -4.939155248091613e-08 -0.9999999999731932 -7.32195360964815e-06
  outer loop
    vertex 113.514851 85.48065477238755 0.1000000000000028
    vertex 116.014851 85.48065477238755 2.0
    vertex 113.51485100000002 85.48065477238755 12.999999999999998
  endloop
endfacet
facet normal -4.939155248091613e-08 -0.9999999999731932 -7.32195360964815e-06
  outer loop
    vertex 113.51485100000002 85.48065477238755 12.999999999999998
    vertex 116.014851 85.48065477238755 2.0
    vertex 116.014851 85.48065477238755 4.200000000000001
  endloop
endfacet
facet normal -4.939155248091613e-08 -0.9999999999731932 -7.32195360964815e-06
  outer loop
    vertex 113.51485100000002 85.48065477238755 12.999999999999998
    vertex 116.014851 85.48065477238755 4.200000000000001
    vertex 116.2560319548975 85.48065477238755 12.034074173710929
  endloop
endfacet
facet normal -4.939155248091613e-08 -0.9999999999731932 -7.32195360964815e-06
  outer loop
    vertex 116.2560319548975 85.48065477238755 12.034074173710929
    vertex 116.014851 85.48065477238755 4.200000000000001
    vertex 116.51485100000001 85.48065477238755 11.999999999999998
  endloop
endfacet
facet normal -4.939155248091613e-08 -0.9999999999731932 -7.32195360964815e-06
  outer loop
    vertex 113.51485100000002 85.48065477238755 12.999999999999998
    vertex 116.2560319548975 85.48065477238755 12.034074173710929
    vertex 116.01485100000001 85.48065477238755 12.133974596215559
  endloop
endfacet
facet normal -4.939155248091613e-08 -0.9999999999731932 -7.32195360964815e-06
  outer loop
    vertex 113.51485100000002 85.48065477238755 12.999999999999998
    vertex 116.01485100000001 85.48065477238755 12.133974596215559
    vertex 115.80774421881347 85.48065477238755 12.29289321881345
  endloop
endfacet
facet normal -4.939155248091613e-08 -0.9999999999731932 -7.32195360964815e-06
  outer loop
    vertex 113.51485100000002 85.48065477238755 12.999999999999998
    vertex 115.80774421881347 85.48065477238755 12.29289321881345
    vertex 115.64882559621557 85.48065477238755 12.499999999999996
  endloop
endfacet
facet normal -4.939155248091613e-08 -0.9999999999731932 -7.32195360964815e-06
  outer loop
    vertex 113.51485100000002 85.48065477238755 12.999999999999998
    vertex 115.64882559621557 85.48065477238755 12.499999999999996
    vertex 115.54892517371096 85.48065477238755 12.741180954897478
  endloop
endfacet
facet normal -4.939155248091613e-08 -0.9999999999731932 -7.32195360964815e-06
  outer loop
    vertex 113.51485100000002 85.48065477238755 12.999999999999998
    vertex 115.54892517371096 85.48065477238755 12.741180954897478
    vertex 115.51485100000001 85.48065477238755 12.999999999999998
  endloop
endfacet
facet normal -4.939155248091613e-08 -0.9999999999731932 -7.32195360964815e-06
  outer loop
    vertex 113.51485100000002 85.48065477238755 12.999999999999998
    vertex 115.51485100000001 85.48065477238755 12.999999999999998
    vertex 115.54892517371096 85.48065477238755 13.258819045102518
  endloop
endfacet
facet normal -4.939155248091613e-08 -0.9999999999731932 -7.32195360964815e-06
  outer loop
    vertex 113.51485100000002 85.48065477238755 12.999999999999998
    vertex 115.54892517371096 85.48065477238755 13.258819045102518
    vertex 113.61707352113281 85.48065477238755 13.776457135307561
  endloop
endfacet
facet normal -4.939155248091613e-08 -0.9999999999731932 -7.32195360964815e-06
  outer loop
    vertex 113.61707352113281 85.48065477238755 13.776457135307561
    vertex 115.54892517371096 85.48065477238755 13.258819045102518
    vertex 115.64882559621557 85.48065477238755 13.499999999999998
  endloop
endfacet
facet normal -4.939155248091613e-08 -0.9999999999731932 -7.32195360964815e-06
  outer loop
    vertex 113.61707352113281 85.48065477238755 13.776457135307561
    vertex 115.64882559621557 85.48065477238755 13.499999999999998
    vertex 115.80774421881347 85.48065477238755 13.707106781186544
  endloop
endfacet
facet normal -4.939155248091613e-08 -0.9999999999731932 -7.32195360964815e-06
  outer loop
    vertex 113.61707352113281 85.48065477238755 13.776457135307561
    vertex 115.80774421881347 85.48065477238755 13.707106781186544
    vertex 116.01485100000001 85.48065477238755 13.866025403784437
  endloop
endfacet
facet normal -4.939155248091613e-08 -0.9999999999731932 -7.32195360964815e-06
  outer loop
    vertex 113.61707352113281 85.48065477238755 13.776457135307561
    vertex 116.01485100000001 85.48065477238755 13.866025403784437
    vertex 113.91677478864669 85.48065477238755 14.499999999999998
  endloop
endfacet
facet normal -4.939155248091613e-08 -0.9999999999731932 -7.32195360964815e-06
  outer loop
    vertex 113.91677478864669 85.48065477238755 14.499999999999998
    vertex 116.01485100000001 85.48065477238755 13.866025403784437
    vertex 116.2560319548975 85.48065477238755 13.965925826289066
  endloop
endfacet
facet normal -4.939155248091613e-08 -0.9999999999731932 -7.32195360964815e-06
  outer loop
    vertex 113.91677478864669 85.48065477238755 14.499999999999998
    vertex 116.2560319548975 85.48065477238755 13.965925826289066
    vertex 116.51485100000001 85.48065477238755 13.999999999999996
  endloop
endfacet
facet normal -4.939155248091613e-08 -0.9999999999731932 -7.32195360964815e-06
  outer loop
    vertex 113.91677478864669 85.48065477238755 14.499999999999998
    vertex 116.51485100000001 85.48065477238755 13.999999999999996
    vertex 119.11292721135334 85.48065477238755 14.499999999999998
  endloop
endfacet
facet normal -4.939155248091613e-08 -0.9999999999731932 -7.32195360964815e-06
  outer loop
    vertex 113.91677478864669 85.48065477238755 14.499999999999998
    vertex 119.11292721135334 85.48065477238755 14.499999999999998
    vertex 118.63617134355965 85.48065477238755 15.12132034355964
  endloop
endfacet
facet normal -4.939155248091613e-08 -0.9999999999731932 -7.32195360964815e-06
  outer loop
    vertex 113.91677478864669 85.48065477238755 14.499999999999998
    vertex 118.63617134355965 85.48065477238755 15.12132034355964
    vertex 114.39353065644036 85.48065477238755 15.12132034355964
  endloop
endfacet
facet normal -4.939155248091613e-08 -0.9999999999731932 -7.32195360964815e-06
  outer loop
    vertex 114.39353065644036 85.48065477238755 15.12132034355964
    vertex 118.63617134355965 85.48065477238755 15.12132034355964
    vertex 118.01485100000001 85.48065477238755 15.598076211353316
  endloop
endfacet
facet normal -4.939155248091613e-08 -0.9999999999731932 -7.32195360964815e-06
  outer loop
    vertex 114.39353065644036 85.48065477238755 15.12132034355964
    vertex 118.01485100000001 85.48065477238755 15.598076211353316
    vertex 115.01485100000001 85.48065477238755 15.598076211353314
  endloop
endfacet
facet normal -4.939155248091613e-08 -0.9999999999731932 -7.32195360964815e-06
  outer loop
    vertex 115.01485100000001 85.48065477238755 15.598076211353314
    vertex 118.01485100000001 85.48065477238755 15.598076211353316
    vertex 115.73839386469245 85.48065477238755 15.897777478867203
  endloop
endfacet
facet normal -4.939155248091613e-08 -0.9999999999731932 -7.32195360964815e-06
  outer loop
    vertex 115.73839386469245 85.48065477238755 15.897777478867203
    vertex 118.01485100000001 85.48065477238755 15.598076211353316
    vertex 117.29130813530757 85.48065477238755 15.897777478867203
  endloop
endfacet
facet normal -4.939155248091613e-08 -0.9999999999731932 -7.32195360964815e-06
  outer loop
    vertex 115.73839386469245 85.48065477238755 15.897777478867203
    vertex 117.29130813530757 85.48065477238755 15.897777478867203
    vertex 116.51485100000001 85.48065477238755 15.999999999999998
  endloop
endfacet
facet normal 0.0 0.0 -1.0
  outer loop
    vertex 119.51485100000001 95.48065477238755 4.200000000000001
    vertex 116.014851 85.48065477238755 4.200000000000001
    vertex 116.014851 95.48065477238755 4.200000000000001
  endloop
endfacet
facet normal 0.0 0.0 -1.0
  outer loop
    vertex 116.014851 85.48065477238755 4.200000000000001
    vertex 119.51485100000001 95.48065477238755 4.200000000000001
    vertex 119.51485100000001 85.48065477238755 4.200000000000001
  endloop
endfacet
facet normal 1.0 0.0 0.0
  outer loop
    vertex 119.51485100000001 85.48065477238755 4.200000000000001
    vertex 119.51485100000001 87.48065477238755 6.000000000000001
    vertex 119.51485100000001 85.48065477238755 12.999999999999998
  endloop
endfacet
facet normal 1.0 0.0 0.0
  outer loop
    vertex 119.51485100000001 87.48065477238755 6.000000000000001
    vertex 119.51485100000001 85.48065477238755 4.200000000000001
    vertex 119.51485100000001 95.48065477238755 4.200000000000001
  endloop
endfacet
facet normal 1.0 0.0 0.0
  outer loop
    vertex 119.51485100000001 87.48065477238755 6.000000000000001
    vertex 119.51485100000001 95.48065477238755 4.200000000000001
    vertex 119.51485100000001 95.48065477238755 6.0
  endloop
endfacet
facet normal 1.0 0.0 0.0
  outer loop
    vertex 119.51485100000001 87.48065477238755 12.999999999999998
    vertex 119.51485100000001 85.48065477238755 12.999999999999998
    vertex 119.51485100000001 87.48065477238755 6.000000000000001
  endloop
endfacet
facet normal 0.0 0.0 1.0
  outer loop
    vertex 121.01485099999998 104.48065477238754 6.000000000000002
    vertex 116.014851 119.48065477238754 6.000000000000002
    vertex 116.014851 104.48065477238754 6.000000000000002
  endloop
endfacet
facet normal 0.0 0.0 1.0
  outer loop
    vertex 116.014851 119.48065477238754 6.000000000000002
    vertex 121.01485099999998 104.48065477238754 6.000000000000002
    vertex 121.01485099999998 119.48065477238754 6.000000000000002
  endloop
endfacet
facet normal 0.0 0.0 -1.0
  outer loop
    vertex 121.01485099999998 119.48065477238754 4.200000000000002
    vertex 116.014851 104.48065477238754 4.200000000000002
    vertex 116.014851 119.48065477238754 4.200000000000002
  endloop
endfacet
facet normal 0.0 0.0 -1.0
  outer loop
    vertex 116.014851 104.48065477238754 4.200000000000002
    vertex 121.01485099999998 119.48065477238754 4.200000000000002
    vertex 121.01485099999998 104.48065477238754 4.200000000000002
  endloop
endfacet
facet normal 0.0 -1.0 0.0
  outer loop
    vertex 121.01485099999998 104.48065477238754 6.000000000000002
    vertex 116.014851 104.48065477238754 4.200000000000002
    vertex 121.01485099999998 104.48065477238754 4.200000000000002
  endloop
endfacet
facet normal 0.0 -1.0 0.0
  outer loop
    vertex 116.014851 104.48065477238754 4.200000000000002
    vertex 121.01485099999998 104.48065477238754 6.000000000000002
    vertex 116.014851 104.48065477238754 6.000000000000002
  endloop
endfacet
facet normal 1.0 0.0 0.0
  outer loop
    vertex 121.01485099999998 119.48065477238754 4.200000000000002
    vertex 121.01485099999998 104.48065477238754 6.000000000000002
    vertex 121.01485099999998 104.48065477238754 4.200000000000002
  endloop
endfacet
facet normal 1.0 0.0 0.0
  outer loop
    vertex 121.01485099999998 104.48065477238754 6.000000000000002
    vertex 121.01485099999998 119.48065477238754 4.200000000000002
    vertex 121.01485099999998 119.48065477238754 6.000000000000002
  endloop
endfacet
endsolid PCB_fold_v2
