solid PCB_fold_v2
facet normal 0.0 0.0 1.0
  outer loop
    vertex 116.014851 -10.51934522761234 1.8999999999999997
    vertex 116.014851 -25.51934522761235 1.8999999999999997
    vertex 121.01485099999998 -10.51934522761234 1.8999999999999997
  endloop
endfacet
facet normal 0.0 0.0 1.0
  outer loop
    vertex 121.01485099999998 -25.51934522761235 1.8999999999999997
    vertex 121.01485099999998 -10.51934522761234 1.8999999999999997
    vertex 116.014851 -25.51934522761235 1.8999999999999997
  endloop
endfacet
facet normal 1.181566915782748e-16 1.4750975621374661e-18 1.0
  outer loop
    vertex 113.514851 -25.51934522761235 6.0
    vertex 116.014851 -1.5193452276123496 6.0
    vertex 113.514851 6.480654772387658 6.000000000000001
  endloop
endfacet
facet normal 1.181566915782748e-16 1.4750975621374661e-18 1.0
  outer loop
    vertex 119.51485100000001 6.480654772387658 6.0
    vertex 113.514851 6.480654772387658 6.000000000000001
    vertex 116.014851 -1.5193452276123496 6.0
  endloop
endfacet
facet normal 1.181566915782748e-16 1.4750975621374661e-18 1.0
  outer loop
    vertex 119.51485100000001 -1.5193452276123496 5.999999999999999
    vertex 119.51485100000001 6.480654772387658 6.0
    vertex 116.014851 -1.5193452276123496 6.0
  endloop
endfacet
facet normal 1.181566915782748e-16 1.4750975621374661e-18 1.0
  outer loop
    vertex 121.01485100000002 -25.51934522761235 6.0
    vertex 116.014851 -10.51934522761234 6.0
    vertex 113.514851 -25.51934522761235 6.0
  endloop
endfacet
facet normal 1.181566915782748e-16 1.4750975621374661e-18 1.0
  outer loop
    vertex 116.014851 -1.5193452276123496 6.0
    vertex 113.514851 -25.51934522761235 6.0
    vertex 116.014851 -10.51934522761234 6.0
  endloop
endfacet
facet normal 1.181566915782748e-16 1.4750975621374661e-18 1.0
  outer loop
    vertex 121.01485100000002 -10.51934522761234 6.0
    vertex 116.014851 -10.51934522761234 6.0
    vertex 121.01485100000002 -25.51934522761235 6.0
  endloop
endfacet
facet normal 0.0 0.0 -1.0
  outer loop
    vertex 116.014851 -1.5193452276123496 4.2
    vertex 116.014851 8.480654772387656 4.2
    vertex 119.51485100000001 -1.5193452276123496 4.2
  endloop
endfacet
facet normal 0.0 0.0 -1.0
  outer loop
    vertex 119.51485100000001 8.480654772387656 4.2
    vertex 119.51485100000001 -1.5193452276123496 4.2
    vertex 116.014851 8.480654772387656 4.2
  endloop
endfacet
facet normal 0.0 -1.0 0.0
  outer loop
    vertex 116.014851 -1.5193452276123496 4.2
    vertex 119.51485100000001 -1.5193452276123496 4.2
    vertex 116.014851 -1.5193452276123496 6.0
  endloop
endfacet
facet normal 0.0 -1.0 0.0
  outer loop
    vertex 119.51485100000001 -1.5193452276123496 5.999999999999999
    vertex 116.014851 -1.5193452276123496 6.0
    vertex 119.51485100000001 -1.5193452276123496 4.2
  endloop
endfacet
facet normal -1.0 3.221952720874774e-17 1.7479959627068511e-15
  outer loop
    vertex 113.51485100000002 8.480654772387656 12.999999999999998
    vertex 113.514851 8.480654772387656 0.10000000000000209
    vertex 113.51485100000002 6.480654772387658 12.999999999999998
  endloop
endfacet
facet normal -1.0 3.221952720874774e-17 1.7479959627068511e-15
  outer loop
    vertex 113.514851 6.480654772387658 6.000000000000001
    vertex 113.51485100000002 6.480654772387658 12.999999999999998
    vertex 113.514851 8.480654772387656 0.10000000000000209
  endloop
endfacet
facet normal -1.0 3.221952720874774e-17 1.7479959627068511e-15
  outer loop
    vertex 113.514851 -25.51934522761235 0.10000000000000032
    vertex 113.514851 6.480654772387658 6.000000000000001
    vertex 113.514851 8.480654772387656 0.10000000000000209
  endloop
endfacet
facet normal -1.0 3.221952720874774e-17 1.7479959627068511e-15
  outer loop
    vertex 113.514851 -25.51934522761235 6.0
    vertex 113.514851 6.480654772387658 6.000000000000001
    vertex 113.514851 -25.51934522761235 0.10000000000000032
  endloop
endfacet
facet normal 0.0 1.0 0.0
  outer loop
    vertex 119.51485100000001 8.480654772387656 4.2
    vertex 116.014851 8.480654772387656 4.2
    vertex 119.51485100000001 8.480654772387656 12.999999999999998
  endloop
endfacet
facet normal 0.0 1.0 0.0
  outer loop
    vertex 116.77367004510252 8.480654772387656 12.034074173710929
    vertex 119.51485100000001 8.480654772387656 12.999999999999998
    vertex 116.014851 8.480654772387656 4.2
  endloop
endfacet
facet normal 0.0 1.0 0.0
  outer loop
    vertex 116.51485100000001 8.480654772387656 11.999999999999998
    vertex 116.77367004510252 8.480654772387656 12.034074173710929
    vertex 116.014851 8.480654772387656 4.2
  endloop
endfacet
facet normal 0.0 1.0 0.0
  outer loop
    vertex 117.01485100000001 8.480654772387656 12.133974596215559
    vertex 119.51485100000001 8.480654772387656 12.999999999999998
    vertex 116.77367004510252 8.480654772387656 12.034074173710929
  endloop
endfacet
facet normal 0.0 1.0 0.0
  outer loop
    vertex 117.22195778118656 8.480654772387656 12.292893218813452
    vertex 119.51485100000001 8.480654772387656 12.999999999999998
    vertex 117.01485100000001 8.480654772387656 12.133974596215559
  endloop
endfacet
facet normal 0.0 1.0 0.0
  outer loop
    vertex 117.38087640378444 8.480654772387656 12.5
    vertex 119.51485100000001 8.480654772387656 12.999999999999998
    vertex 117.22195778118656 8.480654772387656 12.292893218813452
  endloop
endfacet
facet normal 0.0 1.0 0.0
  outer loop
    vertex 117.48077682628907 8.480654772387656 12.741180954897478
    vertex 119.51485100000001 8.480654772387656 12.999999999999998
    vertex 117.38087640378444 8.480654772387656 12.5
  endloop
endfacet
facet normal 0.0 1.0 0.0
  outer loop
    vertex 117.51485100000001 8.480654772387656 12.999999999999998
    vertex 119.51485100000001 8.480654772387656 12.999999999999998
    vertex 117.48077682628907 8.480654772387656 12.741180954897478
  endloop
endfacet
facet normal 0.0 1.0 0.0
  outer loop
    vertex 119.41262847886722 8.480654772387656 13.776457135307565
    vertex 119.51485100000001 8.480654772387656 12.999999999999998
    vertex 117.51485100000001 8.480654772387656 12.999999999999998
  endloop
endfacet
facet normal 0.0 1.0 0.0
  outer loop
    vertex 117.48077682628907 8.480654772387656 13.258819045102522
    vertex 119.41262847886722 8.480654772387656 13.776457135307565
    vertex 117.51485100000001 8.480654772387656 12.999999999999998
  endloop
endfacet
facet normal 0.0 1.0 0.0
  outer loop
    vertex 117.38087640378444 8.480654772387656 13.499999999999998
    vertex 119.41262847886722 8.480654772387656 13.776457135307565
    vertex 117.48077682628907 8.480654772387656 13.258819045102522
  endloop
endfacet
facet normal 0.0 1.0 0.0
  outer loop
    vertex 117.22195778118656 8.480654772387656 13.707106781186544
    vertex 119.41262847886722 8.480654772387656 13.776457135307565
    vertex 117.38087640378444 8.480654772387656 13.499999999999998
  endloop
endfacet
facet normal 0.0 1.0 0.0
  outer loop
    vertex 117.01485100000001 8.480654772387656 13.866025403784437
    vertex 119.41262847886722 8.480654772387656 13.776457135307565
    vertex 117.22195778118656 8.480654772387656 13.707106781186544
  endloop
endfacet
facet normal 0.0 1.0 0.0
  outer loop
    vertex 119.11292721135334 8.480654772387656 14.499999999999998
    vertex 119.41262847886722 8.480654772387656 13.776457135307565
    vertex 117.01485100000001 8.480654772387656 13.866025403784437
  endloop
endfacet
facet normal 0.0 1.0 0.0
  outer loop
    vertex 116.77367004510252 8.480654772387656 13.965925826289068
    vertex 119.11292721135334 8.480654772387656 14.499999999999998
    vertex 117.01485100000001 8.480654772387656 13.866025403784437
  endloop
endfacet
facet normal 0.0 1.0 0.0
  outer loop
    vertex 116.51485100000001 8.480654772387656 13.999999999999996
    vertex 119.11292721135334 8.480654772387656 14.499999999999998
    vertex 116.77367004510252 8.480654772387656 13.965925826289068
  endloop
endfacet
facet normal 0.0 1.0 0.0
  outer loop
    vertex 116.014851 8.480654772387656 0.10000000000000002
    vertex 113.514851 8.480654772387656 0.10000000000000209
    vertex 116.014851 8.480654772387656 1.9999999999999996
  endloop
endfacet
facet normal 0.0 1.0 0.0
  outer loop
    vertex 113.51485100000002 8.480654772387656 12.999999999999998
    vertex 116.014851 8.480654772387656 1.9999999999999996
    vertex 113.514851 8.480654772387656 0.10000000000000209
  endloop
endfacet
facet normal 0.0 1.0 0.0
  outer loop
    vertex 116.014851 8.480654772387656 4.2
    vertex 116.014851 8.480654772387656 1.9999999999999996
    vertex 113.51485100000002 8.480654772387656 12.999999999999998
  endloop
endfacet
facet normal 0.0 1.0 0.0
  outer loop
    vertex 116.2560319548975 8.480654772387656 12.034074173710929
    vertex 116.014851 8.480654772387656 4.2
    vertex 113.51485100000002 8.480654772387656 12.999999999999998
  endloop
endfacet
facet normal 0.0 1.0 0.0
  outer loop
    vertex 116.51485100000001 8.480654772387656 11.999999999999998
    vertex 116.014851 8.480654772387656 4.2
    vertex 116.2560319548975 8.480654772387656 12.034074173710929
  endloop
endfacet
facet normal 0.0 1.0 0.0
  outer loop
    vertex 116.01485100000001 8.480654772387656 12.133974596215559
    vertex 116.2560319548975 8.480654772387656 12.034074173710929
    vertex 113.51485100000002 8.480654772387656 12.999999999999998
  endloop
endfacet
facet normal 0.0 1.0 0.0
  outer loop
    vertex 115.80774421881347 8.480654772387656 12.29289321881345
    vertex 116.01485100000001 8.480654772387656 12.133974596215559
    vertex 113.51485100000002 8.480654772387656 12.999999999999998
  endloop
endfacet
facet normal 0.0 1.0 0.0
  outer loop
    vertex 115.64882559621557 8.480654772387656 12.499999999999996
    vertex 115.80774421881347 8.480654772387656 12.29289321881345
    vertex 113.51485100000002 8.480654772387656 12.999999999999998
  endloop
endfacet
facet normal 0.0 1.0 0.0
  outer loop
    vertex 115.54892517371096 8.480654772387656 12.741180954897478
    vertex 115.64882559621557 8.480654772387656 12.499999999999996
    vertex 113.51485100000002 8.480654772387656 12.999999999999998
  endloop
endfacet
facet normal 0.0 1.0 0.0
  outer loop
    vertex 115.51485100000001 8.480654772387656 12.999999999999998
    vertex 115.54892517371096 8.480654772387656 12.741180954897478
    vertex 113.51485100000002 8.480654772387656 12.999999999999998
  endloop
endfacet
facet normal 0.0 1.0 0.0
  outer loop
    vertex 115.54892517371096 8.480654772387656 13.258819045102518
    vertex 115.51485100000001 8.480654772387656 12.999999999999998
    vertex 113.51485100000002 8.480654772387656 12.999999999999998
  endloop
endfacet
facet normal 0.0 1.0 0.0
  outer loop
    vertex 113.61707352113281 8.480654772387656 13.776457135307561
    vertex 115.54892517371096 8.480654772387656 13.258819045102518
    vertex 113.51485100000002 8.480654772387656 12.999999999999998
  endloop
endfacet
facet normal 0.0 1.0 0.0
  outer loop
    vertex 115.64882559621557 8.480654772387656 13.499999999999998
    vertex 115.54892517371096 8.480654772387656 13.258819045102518
    vertex 113.61707352113281 8.480654772387656 13.776457135307561
  endloop
endfacet
facet normal 0.0 1.0 0.0
  outer loop
    vertex 115.80774421881347 8.480654772387656 13.707106781186544
    vertex 115.64882559621557 8.480654772387656 13.499999999999998
    vertex 113.61707352113281 8.480654772387656 13.776457135307561
  endloop
endfacet
facet normal 0.0 1.0 0.0
  outer loop
    vertex 116.01485100000001 8.480654772387656 13.866025403784437
    vertex 115.80774421881347 8.480654772387656 13.707106781186544
    vertex 113.61707352113281 8.480654772387656 13.776457135307561
  endloop
endfacet
facet normal 0.0 1.0 0.0
  outer loop
    vertex 113.91677478864669 8.480654772387656 14.499999999999998
    vertex 116.01485100000001 8.480654772387656 13.866025403784437
    vertex 113.61707352113281 8.480654772387656 13.776457135307561
  endloop
endfacet
facet normal 0.0 1.0 0.0
  outer loop
    vertex 116.2560319548975 8.480654772387656 13.965925826289066
    vertex 116.01485100000001 8.480654772387656 13.866025403784437
    vertex 113.91677478864669 8.480654772387656 14.499999999999998
  endloop
endfacet
facet normal 0.0 1.0 0.0
  outer loop
    vertex 116.51485100000001 8.480654772387656 13.999999999999996
    vertex 116.2560319548975 8.480654772387656 13.965925826289066
    vertex 113.91677478864669 8.480654772387656 14.499999999999998
  endloop
endfacet
facet normal 0.0 1.0 0.0
  outer loop
    vertex 119.11292721135334 8.480654772387656 14.499999999999998
    vertex 116.51485100000001 8.480654772387656 13.999999999999996
    vertex 113.91677478864669 8.480654772387656 14.499999999999998
  endloop
endfacet
facet normal 0.0 1.0 0.0
  outer loop
    vertex 118.63617134355965 8.480654772387656 15.12132034355964
    vertex 119.11292721135334 8.480654772387656 14.499999999999998
    vertex 113.91677478864669 8.480654772387656 14.499999999999998
  endloop
endfacet
facet normal 0.0 1.0 0.0
  outer loop
    vertex 114.39353065644036 8.480654772387656 15.12132034355964
    vertex 118.63617134355965 8.480654772387656 15.12132034355964
    vertex 113.91677478864669 8.480654772387656 14.499999999999998
  endloop
endfacet
facet normal 0.0 1.0 0.0
  outer loop
    vertex 118.01485100000001 8.480654772387656 15.598076211353316
    vertex 118.63617134355965 8.480654772387656 15.12132034355964
    vertex 114.39353065644036 8.480654772387656 15.12132034355964
  endloop
endfacet
facet normal 0.0 1.0 0.0
  outer loop
    vertex 115.01485100000001 8.480654772387656 15.598076211353314
    vertex 118.01485100000001 8.480654772387656 15.598076211353316
    vertex 114.39353065644036 8.480654772387656 15.12132034355964
  endloop
endfacet
facet normal 0.0 1.0 0.0
  outer loop
    vertex 115.73839386469245 8.480654772387656 15.897777478867203
    vertex 118.01485100000001 8.480654772387656 15.598076211353316
    vertex 115.01485100000001 8.480654772387656 15.598076211353314
  endloop
endfacet
facet normal 0.0 1.0 0.0
  outer loop
    vertex 117.29130813530757 8.480654772387656 15.897777478867203
    vertex 118.01485100000001 8.480654772387656 15.598076211353316
    vertex 115.73839386469245 8.480654772387656 15.897777478867203
  endloop
endfacet
facet normal 0.0 1.0 0.0
  outer loop
    vertex 116.51485100000001 8.480654772387656 15.999999999999998
    vertex 117.29130813530757 8.480654772387656 15.897777478867203
    vertex 115.73839386469245 8.480654772387656 15.897777478867203
  endloop
endfacet
facet normal 0.0 -1.0 0.0
  outer loop
    vertex 116.51485100000001 6.480654772387681 11.999999999999998
    vertex 116.2560319548975 6.480654772387681 12.034074173710929
    vertex 113.514851 6.480654772387658 6.000000000000001
  endloop
endfacet
facet normal 0.0 -1.0 0.0
  outer loop
    vertex 113.51485100000002 6.480654772387658 12.999999999999998
    vertex 113.514851 6.480654772387658 6.000000000000001
    vertex 116.2560319548975 6.480654772387681 12.034074173710929
  endloop
endfacet
facet normal 0.0 -1.0 0.0
  outer loop
    vertex 116.01485100000001 6.480654772387681 12.133974596215559
    vertex 113.51485100000002 6.480654772387658 12.999999999999998
    vertex 116.2560319548975 6.480654772387681 12.034074173710929
  endloop
endfacet
facet normal 0.0 -1.0 0.0
  outer loop
    vertex 115.80774421881347 6.480654772387681 12.29289321881345
    vertex 113.51485100000002 6.480654772387658 12.999999999999998
    vertex 116.01485100000001 6.480654772387681 12.133974596215559
  endloop
endfacet
facet normal 0.0 -1.0 0.0
  outer loop
    vertex 115.64882559621557 6.480654772387681 12.499999999999996
    vertex 113.51485100000002 6.480654772387658 12.999999999999998
    vertex 115.80774421881347 6.480654772387681 12.29289321881345
  endloop
endfacet
facet normal 0.0 -1.0 0.0
  outer loop
    vertex 115.54892517371096 6.480654772387681 12.741180954897478
    vertex 113.51485100000002 6.480654772387658 12.999999999999998
    vertex 115.64882559621557 6.480654772387681 12.499999999999996
  endloop
endfacet
facet normal 0.0 -1.0 0.0
  outer loop
    vertex 115.51485100000001 6.480654772387681 12.999999999999998
    vertex 113.51485100000002 6.480654772387658 12.999999999999998
    vertex 115.54892517371096 6.480654772387681 12.741180954897478
  endloop
endfacet
facet normal 0.0 -1.0 0.0
  outer loop
    vertex 113.61707352113281 6.480654772387658 13.776457135307561
    vertex 113.51485100000002 6.480654772387658 12.999999999999998
    vertex 115.51485100000001 6.480654772387681 12.999999999999998
  endloop
endfacet
facet normal 0.0 -1.0 0.0
  outer loop
    vertex 115.54892517371096 6.480654772387681 13.258819045102518
    vertex 113.61707352113281 6.480654772387658 13.776457135307561
    vertex 115.51485100000001 6.480654772387681 12.999999999999998
  endloop
endfacet
facet normal 0.0 -1.0 0.0
  outer loop
    vertex 115.64882559621557 6.480654772387681 13.499999999999998
    vertex 113.61707352113281 6.480654772387658 13.776457135307561
    vertex 115.54892517371096 6.480654772387681 13.258819045102518
  endloop
endfacet
facet normal 0.0 -1.0 0.0
  outer loop
    vertex 115.80774421881347 6.480654772387681 13.707106781186544
    vertex 113.61707352113281 6.480654772387658 13.776457135307561
    vertex 115.64882559621557 6.480654772387681 13.499999999999998
  endloop
endfacet
facet normal 0.0 -1.0 0.0
  outer loop
    vertex 116.01485100000001 6.480654772387681 13.866025403784437
    vertex 113.61707352113281 6.480654772387658 13.776457135307561
    vertex 115.80774421881347 6.480654772387681 13.707106781186544
  endloop
endfacet
facet normal 0.0 -1.0 0.0
  outer loop
    vertex 113.91677478864669 6.480654772387658 14.499999999999998
    vertex 113.61707352113281 6.480654772387658 13.776457135307561
    vertex 116.01485100000001 6.480654772387681 13.866025403784437
  endloop
endfacet
facet normal 0.0 -1.0 0.0
  outer loop
    vertex 116.2560319548975 6.480654772387681 13.965925826289066
    vertex 113.91677478864669 6.480654772387658 14.499999999999998
    vertex 116.01485100000001 6.480654772387681 13.866025403784437
  endloop
endfacet
facet normal 0.0 -1.0 0.0
  outer loop
    vertex 116.51485100000001 6.480654772387681 13.999999999999996
    vertex 113.91677478864669 6.480654772387658 14.499999999999998
    vertex 116.2560319548975 6.480654772387681 13.965925826289066
  endloop
endfacet
facet normal 0.0 -1.0 0.0
  outer loop
    vertex 119.51485100000001 6.480654772387658 6.0
    vertex 119.51485100000001 6.480654772387658 12.999999999999998
    vertex 113.514851 6.480654772387658 6.000000000000001
  endloop
endfacet
facet normal 0.0 -1.0 0.0
  outer loop
    vertex 116.77367004510252 6.480654772387681 12.034074173710929
    vertex 113.514851 6.480654772387658 6.000000000000001
    vertex 119.51485100000001 6.480654772387658 12.999999999999998
  endloop
endfacet
facet normal 0.0 -1.0 0.0
  outer loop
    vertex 116.51485100000001 6.480654772387681 11.999999999999998
    vertex 113.514851 6.480654772387658 6.000000000000001
    vertex 116.77367004510252 6.480654772387681 12.034074173710929
  endloop
endfacet
facet normal 0.0 -1.0 0.0
  outer loop
    vertex 117.01485100000001 6.480654772387681 12.133974596215559
    vertex 116.77367004510252 6.480654772387681 12.034074173710929
    vertex 119.51485100000001 6.480654772387658 12.999999999999998
  endloop
endfacet
facet normal 0.0 -1.0 0.0
  outer loop
    vertex 117.22195778118656 6.480654772387681 12.292893218813452
    vertex 117.01485100000001 6.480654772387681 12.133974596215559
    vertex 119.51485100000001 6.480654772387658 12.999999999999998
  endloop
endfacet
facet normal 0.0 -1.0 0.0
  outer loop
    vertex 117.38087640378444 6.480654772387681 12.5
    vertex 117.22195778118656 6.480654772387681 12.292893218813452
    vertex 119.51485100000001 6.480654772387658 12.999999999999998
  endloop
endfacet
facet normal 0.0 -1.0 0.0
  outer loop
    vertex 117.48077682628907 6.480654772387681 12.741180954897478
    vertex 117.38087640378444 6.480654772387681 12.5
    vertex 119.51485100000001 6.480654772387658 12.999999999999998
  endloop
endfacet
facet normal 0.0 -1.0 0.0
  outer loop
    vertex 117.51485100000001 6.480654772387681 12.999999999999998
    vertex 117.48077682628907 6.480654772387681 12.741180954897478
    vertex 119.51485100000001 6.480654772387658 12.999999999999998
  endloop
endfacet
facet normal 0.0 -1.0 0.0
  outer loop
    vertex 117.48077682628907 6.480654772387681 13.258819045102522
    vertex 117.51485100000001 6.480654772387681 12.999999999999998
    vertex 119.51485100000001 6.480654772387658 12.999999999999998
  endloop
endfacet
facet normal 0.0 -1.0 0.0
  outer loop
    vertex 119.41262847886722 6.480654772387658 13.776457135307565
    vertex 117.48077682628907 6.480654772387681 13.258819045102522
    vertex 119.51485100000001 6.480654772387658 12.999999999999998
  endloop
endfacet
facet normal 0.0 -1.0 0.0
  outer loop
    vertex 117.38087640378444 6.480654772387681 13.499999999999998
    vertex 117.48077682628907 6.480654772387681 13.258819045102522
    vertex 119.41262847886722 6.480654772387658 13.776457135307565
  endloop
endfacet
facet normal 0.0 -1.0 0.0
  outer loop
    vertex 117.22195778118656 6.480654772387681 13.707106781186544
    vertex 117.38087640378444 6.480654772387681 13.499999999999998
    vertex 119.41262847886722 6.480654772387658 13.776457135307565
  endloop
endfacet
facet normal 0.0 -1.0 0.0
  outer loop
    vertex 117.01485100000001 6.480654772387681 13.866025403784437
    vertex 117.22195778118656 6.480654772387681 13.707106781186544
    vertex 119.41262847886722 6.480654772387658 13.776457135307565
  endloop
endfacet
facet normal 0.0 -1.0 0.0
  outer loop
    vertex 119.11292721135334 6.480654772387658 14.499999999999998
    vertex 117.01485100000001 6.480654772387681 13.866025403784437
    vertex 119.41262847886722 6.480654772387658 13.776457135307565
  endloop
endfacet
facet normal 0.0 -1.0 0.0
  outer loop
    vertex 116.77367004510252 6.480654772387681 13.965925826289068
    vertex 117.01485100000001 6.480654772387681 13.866025403784437
    vertex 119.11292721135334 6.480654772387658 14.499999999999998
  endloop
endfacet
facet normal 0.0 -1.0 0.0
  outer loop
    vertex 116.51485100000001 6.480654772387681 13.999999999999996
    vertex 116.77367004510252 6.480654772387681 13.965925826289068
    vertex 119.11292721135334 6.480654772387658 14.499999999999998
  endloop
endfacet
facet normal 0.0 -1.0 0.0
  outer loop
    vertex 113.91677478864669 6.480654772387658 14.499999999999998
    vertex 116.51485100000001 6.480654772387681 13.999999999999996
    vertex 119.11292721135334 6.480654772387658 14.499999999999998
  endloop
endfacet
facet normal 0.0 -1.0 0.0
  outer loop
    vertex 114.39353065644036 6.480654772387658 15.12132034355964
    vertex 113.91677478864669 6.480654772387658 14.499999999999998
    vertex 119.11292721135334 6.480654772387658 14.499999999999998
  endloop
endfacet
facet normal 0.0 -1.0 0.0
  outer loop
    vertex 118.63617134355965 6.480654772387658 15.12132034355964
    vertex 114.39353065644036 6.480654772387658 15.12132034355964
    vertex 119.11292721135334 6.480654772387658 14.499999999999998
  endloop
endfacet
facet normal 0.0 -1.0 0.0
  outer loop
    vertex 115.01485100000001 6.480654772387658 15.598076211353314
    vertex 114.39353065644036 6.480654772387658 15.12132034355964
    vertex 118.63617134355965 6.480654772387658 15.12132034355964
  endloop
endfacet
facet normal 0.0 -1.0 0.0
  outer loop
    vertex 118.01485100000001 6.480654772387658 15.598076211353316
    vertex 115.01485100000001 6.480654772387658 15.598076211353314
    vertex 118.63617134355965 6.480654772387658 15.12132034355964
  endloop
endfacet
facet normal 0.0 -1.0 0.0
  outer loop
    vertex 115.73839386469245 6.480654772387658 15.897777478867203
    vertex 115.01485100000001 6.480654772387658 15.598076211353314
    vertex 118.01485100000001 6.480654772387658 15.598076211353316
  endloop
endfacet
facet normal 0.0 -1.0 0.0
  outer loop
    vertex 117.29130813530757 6.480654772387658 15.897777478867203
    vertex 115.73839386469245 6.480654772387658 15.897777478867203
    vertex 118.01485100000001 6.480654772387658 15.598076211353316
  endloop
endfacet
facet normal 0.0 -1.0 0.0
  outer loop
    vertex 116.51485100000001 6.480654772387658 15.999999999999998
    vertex 115.73839386469245 6.480654772387658 15.897777478867203
    vertex 117.29130813530757 6.480654772387658 15.897777478867203
  endloop
endfacet
facet normal -0.9914448613738114 0.0 0.1305261922200446
  outer loop
    vertex 113.61707352113281 8.480654772387656 13.776457135307561
    vertex 113.51485100000002 8.480654772387656 12.999999999999998
    vertex 113.61707352113281 6.480654772387658 13.776457135307561
  endloop
endfacet
facet normal -0.9914448613738114 0.0 0.1305261922200446
  outer loop
    vertex 113.51485100000002 6.480654772387658 12.999999999999998
    vertex 113.61707352113281 6.480654772387658 13.776457135307561
    vertex 113.51485100000002 8.480654772387656 12.999999999999998
  endloop
endfacet
facet normal -0.92387953251129 0.0 0.3826834323650821
  outer loop
    vertex 113.91677478864669 8.480654772387656 14.499999999999998
    vertex 113.61707352113281 8.480654772387656 13.776457135307561
    vertex 113.91677478864669 6.480654772387658 14.499999999999998
  endloop
endfacet
facet normal -0.92387953251129 0.0 0.3826834323650821
  outer loop
    vertex 113.61707352113281 6.480654772387658 13.776457135307561
    vertex 113.91677478864669 6.480654772387658 14.499999999999998
    vertex 113.61707352113281 8.480654772387656 13.776457135307561
  endloop
endfacet
facet normal -0.7933533402912339 0.0 0.6087614290087225
  outer loop
    vertex 114.39353065644036 8.480654772387656 15.12132034355964
    vertex 113.91677478864669 8.480654772387656 14.499999999999998
    vertex 114.39353065644036 6.480654772387658 15.12132034355964
  endloop
endfacet
facet normal -0.7933533402912339 0.0 0.6087614290087225
  outer loop
    vertex 113.91677478864669 6.480654772387658 14.499999999999998
    vertex 114.39353065644036 6.480654772387658 15.12132034355964
    vertex 113.91677478864669 8.480654772387656 14.499999999999998
  endloop
endfacet
facet normal -0.608761429008715 0.0 0.7933533402912395
  outer loop
    vertex 114.39353065644036 8.480654772387656 15.12132034355964
    vertex 114.39353065644036 6.480654772387658 15.12132034355964
    vertex 115.01485100000001 8.480654772387656 15.598076211353314
  endloop
endfacet
facet normal -0.608761429008715 0.0 0.7933533402912395
  outer loop
    vertex 115.01485100000001 6.480654772387658 15.598076211353314
    vertex 115.01485100000001 8.480654772387656 15.598076211353314
    vertex 114.39353065644036 6.480654772387658 15.12132034355964
  endloop
endfacet
facet normal -0.38268343236509006 0.0 0.9238795325112867
  outer loop
    vertex 115.01485100000001 8.480654772387656 15.598076211353314
    vertex 115.01485100000001 6.480654772387658 15.598076211353314
    vertex 115.73839386469245 8.480654772387656 15.897777478867203
  endloop
endfacet
facet normal -0.38268343236509006 0.0 0.9238795325112867
  outer loop
    vertex 115.73839386469245 6.480654772387658 15.897777478867203
    vertex 115.73839386469245 8.480654772387656 15.897777478867203
    vertex 115.01485100000001 6.480654772387658 15.598076211353314
  endloop
endfacet
facet normal -0.13052619222005263 0.0 0.9914448613738103
  outer loop
    vertex 115.73839386469245 8.480654772387656 15.897777478867203
    vertex 115.73839386469245 6.480654772387658 15.897777478867203
    vertex 116.51485100000001 8.480654772387656 15.999999999999998
  endloop
endfacet
facet normal -0.13052619222005263 0.0 0.9914448613738103
  outer loop
    vertex 116.51485100000001 6.480654772387658 15.999999999999998
    vertex 116.51485100000001 8.480654772387656 15.999999999999998
    vertex 115.73839386469245 6.480654772387658 15.897777478867203
  endloop
endfacet
facet normal 0.13052619222005263 0.0 0.9914448613738103
  outer loop
    vertex 116.51485100000001 8.480654772387656 15.999999999999998
    vertex 116.51485100000001 6.480654772387658 15.999999999999998
    vertex 117.29130813530757 8.480654772387656 15.897777478867203
  endloop
endfacet
facet normal 0.13052619222005263 0.0 0.9914448613738103
  outer loop
    vertex 117.29130813530757 6.480654772387658 15.897777478867203
    vertex 117.29130813530757 8.480654772387656 15.897777478867203
    vertex 116.51485100000001 6.480654772387658 15.999999999999998
  endloop
endfacet
facet normal 0.38268343236508695 0.0 0.923879532511288
  outer loop
    vertex 117.29130813530757 8.480654772387656 15.897777478867203
    vertex 117.29130813530757 6.480654772387658 15.897777478867203
    vertex 118.01485100000001 8.480654772387656 15.598076211353316
  endloop
endfacet
facet normal 0.38268343236508695 0.0 0.923879532511288
  outer loop
    vertex 118.01485100000001 6.480654772387658 15.598076211353316
    vertex 118.01485100000001 8.480654772387656 15.598076211353316
    vertex 117.29130813530757 6.480654772387658 15.897777478867203
  endloop
endfacet
facet normal 0.6087614290087172 0.0 0.7933533402912378
  outer loop
    vertex 118.01485100000001 8.480654772387656 15.598076211353316
    vertex 118.01485100000001 6.480654772387658 15.598076211353316
    vertex 118.63617134355965 8.480654772387656 15.12132034355964
  endloop
endfacet
facet normal 0.6087614290087172 0.0 0.7933533402912378
  outer loop
    vertex 118.63617134355965 6.480654772387658 15.12132034355964
    vertex 118.63617134355965 8.480654772387656 15.12132034355964
    vertex 118.01485100000001 6.480654772387658 15.598076211353316
  endloop
endfacet
facet normal 0.7933533402912339 0.0 0.6087614290087225
  outer loop
    vertex 119.11292721135334 8.480654772387656 14.499999999999998
    vertex 118.63617134355965 8.480654772387656 15.12132034355964
    vertex 119.11292721135334 6.480654772387658 14.499999999999998
  endloop
endfacet
facet normal 0.7933533402912339 0.0 0.6087614290087225
  outer loop
    vertex 118.63617134355965 6.480654772387658 15.12132034355964
    vertex 119.11292721135334 6.480654772387658 14.499999999999998
    vertex 118.63617134355965 8.480654772387656 15.12132034355964
  endloop
endfacet
facet normal 0.9238795325112894 0.0 0.38268343236508334
  outer loop
    vertex 119.41262847886722 8.480654772387656 13.776457135307565
    vertex 119.11292721135334 8.480654772387656 14.499999999999998
    vertex 119.41262847886722 6.480654772387658 13.776457135307565
  endloop
endfacet
facet normal 0.9238795325112894 0.0 0.38268343236508334
  outer loop
    vertex 119.11292721135334 6.480654772387658 14.499999999999998
    vertex 119.41262847886722 6.480654772387658 13.776457135307565
    vertex 119.11292721135334 8.480654772387656 14.499999999999998
  endloop
endfacet
facet normal 0.9914448613738114 0.0 0.13052619222004413
  outer loop
    vertex 119.51485100000001 8.480654772387656 12.999999999999998
    vertex 119.41262847886722 8.480654772387656 13.776457135307565
    vertex 119.51485100000001 6.480654772387658 12.999999999999998
  endloop
endfacet
facet normal 0.9914448613738114 0.0 0.13052619222004413
  outer loop
    vertex 119.41262847886722 6.480654772387658 13.776457135307565
    vertex 119.51485100000001 6.480654772387658 12.999999999999998
    vertex 119.41262847886722 8.480654772387656 13.776457135307565
  endloop
endfacet
facet normal 0.6087614290087128 1.0514855216589286e-30 0.7933533402912413
  outer loop
    vertex 115.80774421881347 8.480654772387656 12.29289321881345
    vertex 115.80774421881347 6.480654772387681 12.29289321881345
    vertex 116.01485100000001 8.480654772387656 12.133974596215559
  endloop
endfacet
facet normal 0.6087614290087128 1.0514855216589286e-30 0.7933533402912413
  outer loop
    vertex 116.01485100000001 6.480654772387681 12.133974596215559
    vertex 116.01485100000001 8.480654772387656 12.133974596215559
    vertex 115.80774421881347 6.480654772387681 12.29289321881345
  endloop
endfacet
facet normal 0.38268343236507985 1.2244808244407502e-30 0.923879532511291
  outer loop
    vertex 116.01485100000001 8.480654772387656 12.133974596215559
    vertex 116.01485100000001 6.480654772387681 12.133974596215559
    vertex 116.2560319548975 8.480654772387656 12.034074173710929
  endloop
endfacet
facet normal 0.38268343236507985 1.2244808244407502e-30 0.923879532511291
  outer loop
    vertex 116.2560319548975 6.480654772387681 12.034074173710929
    vertex 116.2560319548975 8.480654772387656 12.034074173710929
    vertex 116.01485100000001 6.480654772387681 12.133974596215559
  endloop
endfacet
facet normal 0.13052619222005635 1.3140297825871705e-30 0.9914448613738099
  outer loop
    vertex 116.2560319548975 8.480654772387656 12.034074173710929
    vertex 116.2560319548975 6.480654772387681 12.034074173710929
    vertex 116.51485100000001 8.480654772387656 11.999999999999998
  endloop
endfacet
facet normal 0.13052619222005635 1.3140297825871705e-30 0.9914448613738099
  outer loop
    vertex 116.51485100000001 6.480654772387681 11.999999999999998
    vertex 116.51485100000001 8.480654772387656 11.999999999999998
    vertex 116.2560319548975 6.480654772387681 12.034074173710929
  endloop
endfacet
facet normal -0.13052619222005635 1.3140297825871705e-30 0.9914448613738099
  outer loop
    vertex 116.51485100000001 8.480654772387656 11.999999999999998
    vertex 116.51485100000001 6.480654772387681 11.999999999999998
    vertex 116.77367004510252 8.480654772387656 12.034074173710929
  endloop
endfacet
facet normal -0.13052619222005635 1.3140297825871705e-30 0.9914448613738099
  outer loop
    vertex 116.77367004510252 6.480654772387681 12.034074173710929
    vertex 116.77367004510252 8.480654772387656 12.034074173710929
    vertex 116.51485100000001 6.480654772387681 11.999999999999998
  endloop
endfacet
facet normal -0.38268343236507985 1.2244808244407507e-30 0.923879532511291
  outer loop
    vertex 116.77367004510252 8.480654772387656 12.034074173710929
    vertex 116.77367004510252 6.480654772387681 12.034074173710929
    vertex 117.01485100000001 8.480654772387656 12.133974596215559
  endloop
endfacet
facet normal -0.38268343236507985 1.2244808244407507e-30 0.923879532511291
  outer loop
    vertex 117.01485100000001 6.480654772387681 12.133974596215559
    vertex 117.01485100000001 8.480654772387656 12.133974596215559
    vertex 116.77367004510252 6.480654772387681 12.034074173710929
  endloop
endfacet
facet normal -0.6087614290087162 1.0514855216589262e-30 0.7933533402912388
  outer loop
    vertex 117.01485100000001 8.480654772387656 12.133974596215559
    vertex 117.01485100000001 6.480654772387681 12.133974596215559
    vertex 117.22195778118656 8.480654772387656 12.292893218813452
  endloop
endfacet
facet normal -0.6087614290087162 1.0514855216589262e-30 0.7933533402912388
  outer loop
    vertex 117.22195778118656 6.480654772387681 12.292893218813452
    vertex 117.22195778118656 8.480654772387656 12.292893218813452
    vertex 117.01485100000001 6.480654772387681 12.133974596215559
  endloop
endfacet
facet normal -0.7933533402912477 8.068332182380046e-31 0.6087614290087043
  outer loop
    vertex 117.38087640378444 8.480654772387656 12.5
    vertex 117.22195778118656 8.480654772387656 12.292893218813452
    vertex 117.38087640378444 6.480654772387681 12.5
  endloop
endfacet
facet normal -0.7933533402912477 8.068332182380046e-31 0.6087614290087043
  outer loop
    vertex 117.22195778118656 6.480654772387681 12.292893218813452
    vertex 117.38087640378444 6.480654772387681 12.5
    vertex 117.22195778118656 8.480654772387656 12.292893218813452
  endloop
endfacet
facet normal -0.92387953251129 5.071965643491357e-31 0.38268343236508207
  outer loop
    vertex 117.48077682628907 8.480654772387656 12.741180954897478
    vertex 117.38087640378444 8.480654772387656 12.5
    vertex 117.48077682628907 6.480654772387681 12.741180954897478
  endloop
endfacet
facet normal -0.92387953251129 5.071965643491357e-31 0.38268343236508207
  outer loop
    vertex 117.38087640378444 6.480654772387681 12.5
    vertex 117.48077682628907 6.480654772387681 12.741180954897478
    vertex 117.38087640378444 8.480654772387656 12.5
  endloop
endfacet
facet normal -0.9914448613738077 1.7299530278185338e-31 0.13052619222007342
  outer loop
    vertex 117.51485100000001 8.480654772387656 12.999999999999998
    vertex 117.48077682628907 8.480654772387656 12.741180954897478
    vertex 117.51485100000001 6.480654772387681 12.999999999999998
  endloop
endfacet
facet normal -0.9914448613738077 1.7299530278185338e-31 0.13052619222007342
  outer loop
    vertex 117.48077682628907 6.480654772387681 12.741180954897478
    vertex 117.51485100000001 6.480654772387681 12.999999999999998
    vertex 117.48077682628907 8.480654772387656 12.741180954897478
  endloop
endfacet
facet normal -0.9914448613738077 -1.7299530278185022e-31 -0.13052619222007197
  outer loop
    vertex 117.48077682628907 8.480654772387656 13.258819045102522
    vertex 117.51485100000001 8.480654772387656 12.999999999999998
    vertex 117.48077682628907 6.480654772387681 13.258819045102522
  endloop
endfacet
facet normal -0.9914448613738077 -1.7299530278185022e-31 -0.13052619222007197
  outer loop
    vertex 117.51485100000001 6.480654772387681 12.999999999999998
    vertex 117.48077682628907 6.480654772387681 13.258819045102522
    vertex 117.51485100000001 8.480654772387656 12.999999999999998
  endloop
endfacet
facet normal -0.9238795325112884 -5.071965643491396e-31 -0.38268343236508595
  outer loop
    vertex 117.38087640378444 8.480654772387656 13.499999999999998
    vertex 117.48077682628907 8.480654772387656 13.258819045102522
    vertex 117.38087640378444 6.480654772387681 13.499999999999998
  endloop
endfacet
facet normal -0.9238795325112884 -5.071965643491396e-31 -0.38268343236508595
  outer loop
    vertex 117.48077682628907 6.480654772387681 13.258819045102522
    vertex 117.38087640378444 6.480654772387681 13.499999999999998
    vertex 117.48077682628907 8.480654772387656 13.258819045102522
  endloop
endfacet
facet normal -0.7933533402912477 -8.068332182380035e-31 -0.6087614290087043
  outer loop
    vertex 117.22195778118656 8.480654772387656 13.707106781186544
    vertex 117.38087640378444 8.480654772387656 13.499999999999998
    vertex 117.22195778118656 6.480654772387681 13.707106781186544
  endloop
endfacet
facet normal -0.7933533402912477 -8.068332182380035e-31 -0.6087614290087043
  outer loop
    vertex 117.38087640378444 6.480654772387681 13.499999999999998
    vertex 117.22195778118656 6.480654772387681 13.707106781186544
    vertex 117.38087640378444 8.480654772387656 13.499999999999998
  endloop
endfacet
facet normal -0.6087614290087195 -1.0514855216589218e-30 -0.793353340291236
  outer loop
    vertex 117.01485100000001 6.480654772387681 13.866025403784437
    vertex 117.01485100000001 8.480654772387656 13.866025403784437
    vertex 117.22195778118656 6.480654772387681 13.707106781186544
  endloop
endfacet
facet normal -0.6087614290087195 -1.0514855216589218e-30 -0.793353340291236
  outer loop
    vertex 117.22195778118656 8.480654772387656 13.707106781186544
    vertex 117.22195778118656 6.480654772387681 13.707106781186544
    vertex 117.01485100000001 8.480654772387656 13.866025403784437
  endloop
endfacet
facet normal -0.38268343236507985 -1.2244808244407502e-30 -0.923879532511291
  outer loop
    vertex 116.77367004510252 6.480654772387681 13.965925826289068
    vertex 116.77367004510252 8.480654772387656 13.965925826289068
    vertex 117.01485100000001 6.480654772387681 13.866025403784437
  endloop
endfacet
facet normal -0.38268343236507985 -1.2244808244407502e-30 -0.923879532511291
  outer loop
    vertex 117.01485100000001 8.480654772387656 13.866025403784437
    vertex 117.01485100000001 6.480654772387681 13.866025403784437
    vertex 116.77367004510252 8.480654772387656 13.965925826289068
  endloop
endfacet
facet normal -0.13052619222004574 -1.3140297825871723e-30 -0.9914448613738113
  outer loop
    vertex 116.51485100000001 6.480654772387681 13.999999999999996
    vertex 116.51485100000001 8.480654772387656 13.999999999999996
    vertex 116.77367004510252 6.480654772387681 13.965925826289068
  endloop
endfacet
facet normal -0.13052619222004574 -1.3140297825871723e-30 -0.9914448613738113
  outer loop
    vertex 116.77367004510252 8.480654772387656 13.965925826289068
    vertex 116.77367004510252 6.480654772387681 13.965925826289068
    vertex 116.51485100000001 8.480654772387656 13.999999999999996
  endloop
endfacet
facet normal 0.13052619222005635 -1.3140297825871705e-30 -0.9914448613738099
  outer loop
    vertex 116.2560319548975 6.480654772387681 13.965925826289066
    vertex 116.2560319548975 8.480654772387656 13.965925826289066
    vertex 116.51485100000001 6.480654772387681 13.999999999999996
  endloop
endfacet
facet normal 0.13052619222005635 -1.3140297825871705e-30 -0.9914448613738099
  outer loop
    vertex 116.51485100000001 8.480654772387656 13.999999999999996
    vertex 116.51485100000001 6.480654772387681 13.999999999999996
    vertex 116.2560319548975 8.480654772387656 13.965925826289066
  endloop
endfacet
facet normal 0.38268343236507063 -1.2244808244407556e-30 -0.9238795325112947
  outer loop
    vertex 116.01485100000001 6.480654772387681 13.866025403784437
    vertex 116.01485100000001 8.480654772387656 13.866025403784437
    vertex 116.2560319548975 6.480654772387681 13.965925826289066
  endloop
endfacet
facet normal 0.38268343236507063 -1.2244808244407556e-30 -0.9238795325112947
  outer loop
    vertex 116.2560319548975 8.480654772387656 13.965925826289066
    vertex 116.2560319548975 6.480654772387681 13.965925826289066
    vertex 116.01485100000001 8.480654772387656 13.866025403784437
  endloop
endfacet
facet normal 0.6087614290087195 -1.0514855216589225e-30 -0.793353340291236
  outer loop
    vertex 115.80774421881347 6.480654772387681 13.707106781186544
    vertex 115.80774421881347 8.480654772387656 13.707106781186544
    vertex 116.01485100000001 6.480654772387681 13.866025403784437
  endloop
endfacet
facet normal 0.6087614290087195 -1.0514855216589225e-30 -0.793353340291236
  outer loop
    vertex 116.01485100000001 8.480654772387656 13.866025403784437
    vertex 116.01485100000001 6.480654772387681 13.866025403784437
    vertex 115.80774421881347 8.480654772387656 13.707106781186544
  endloop
endfacet
facet normal 0.7933533402912477 -8.068332182380046e-31 -0.6087614290087043
  outer loop
    vertex 115.64882559621557 8.480654772387656 13.499999999999998
    vertex 115.80774421881347 8.480654772387656 13.707106781186544
    vertex 115.64882559621557 6.480654772387681 13.499999999999998
  endloop
endfacet
facet normal 0.7933533402912477 -8.068332182380046e-31 -0.6087614290087043
  outer loop
    vertex 115.80774421881347 6.480654772387681 13.707106781186544
    vertex 115.64882559621557 6.480654772387681 13.499999999999998
    vertex 115.80774421881347 8.480654772387656 13.707106781186544
  endloop
endfacet
facet normal 0.92387953251129 -5.071965643491357e-31 -0.38268343236508207
  outer loop
    vertex 115.54892517371096 8.480654772387656 13.258819045102518
    vertex 115.64882559621557 8.480654772387656 13.499999999999998
    vertex 115.54892517371096 6.480654772387681 13.258819045102518
  endloop
endfacet
facet normal 0.92387953251129 -5.071965643491357e-31 -0.38268343236508207
  outer loop
    vertex 115.64882559621557 6.480654772387681 13.499999999999998
    vertex 115.54892517371096 6.480654772387681 13.258819045102518
    vertex 115.64882559621557 8.480654772387656 13.499999999999998
  endloop
endfacet
facet normal 0.9914448613738077 -1.7299530278185338e-31 -0.13052619222007342
  outer loop
    vertex 115.51485100000001 8.480654772387656 12.999999999999998
    vertex 115.54892517371096 8.480654772387656 13.258819045102518
    vertex 115.51485100000001 6.480654772387681 12.999999999999998
  endloop
endfacet
facet normal 0.9914448613738077 -1.7299530278185338e-31 -0.13052619222007342
  outer loop
    vertex 115.54892517371096 6.480654772387681 13.258819045102518
    vertex 115.51485100000001 6.480654772387681 12.999999999999998
    vertex 115.54892517371096 8.480654772387656 13.258819045102518
  endloop
endfacet
facet normal 0.9914448613738077 1.729953027818521e-31 0.13052619222007342
  outer loop
    vertex 115.54892517371096 8.480654772387656 12.741180954897478
    vertex 115.51485100000001 8.480654772387656 12.999999999999998
    vertex 115.54892517371096 6.480654772387681 12.741180954897478
  endloop
endfacet
facet normal 0.9914448613738077 1.729953027818521e-31 0.13052619222007342
  outer loop
    vertex 115.51485100000001 6.480654772387681 12.999999999999998
    vertex 115.54892517371096 6.480654772387681 12.741180954897478
    vertex 115.51485100000001 8.480654772387656 12.999999999999998
  endloop
endfacet
facet normal 0.9238795325112907 5.07196564349132e-31 0.3826834323650802
  outer loop
    vertex 115.64882559621557 8.480654772387656 12.499999999999996
    vertex 115.54892517371096 8.480654772387656 12.741180954897478
    vertex 115.64882559621557 6.480654772387681 12.499999999999996
  endloop
endfacet
facet normal 0.9238795325112907 5.07196564349132e-31 0.3826834323650802
  outer loop
    vertex 115.54892517371096 6.480654772387681 12.741180954897478
    vertex 115.64882559621557 6.480654772387681 12.499999999999996
    vertex 115.54892517371096 8.480654772387656 12.741180954897478
  endloop
endfacet
facet normal 0.7933533402912477 8.068332182380035e-31 0.6087614290087043
  outer loop
    vertex 115.80774421881347 8.480654772387656 12.29289321881345
    vertex 115.64882559621557 8.480654772387656 12.499999999999996
    vertex 115.80774421881347 6.480654772387681 12.29289321881345
  endloop
endfacet
facet normal 0.7933533402912477 8.068332182380035e-31 0.6087614290087043
  outer loop
    vertex 115.64882559621557 6.480654772387681 12.499999999999996
    vertex 115.80774421881347 6.480654772387681 12.29289321881345
    vertex 115.64882559621557 8.480654772387656 12.499999999999996
  endloop
endfacet
facet normal 0.0 1.0 0.0
  outer loop
    vertex 121.01485099999998 -10.51934522761234 0.10000000000000002
    vertex 116.014851 -10.51934522761234 0.10000000000000002
    vertex 121.01485099999998 -10.51934522761234 1.8999999999999997
  endloop
endfacet
facet normal 0.0 1.0 0.0
  outer loop
    vertex 116.014851 -10.51934522761234 1.8999999999999997
    vertex 121.01485099999998 -10.51934522761234 1.8999999999999997
    vertex 116.014851 -10.51934522761234 0.10000000000000002
  endloop
endfacet
facet normal 1.0 0.0 0.0
  outer loop
    vertex 121.01485099999998 -10.51934522761234 0.10000000000000002
    vertex 121.01485099999998 -10.51934522761234 1.8999999999999997
    vertex 121.01485099999998 -25.51934522761235 0.10000000000000002
  endloop
endfacet
facet normal 1.0 0.0 0.0
  outer loop
    vertex 121.01485099999998 -25.51934522761235 1.8999999999999997
    vertex 121.01485099999998 -25.51934522761235 0.10000000000000002
    vertex 121.01485099999998 -10.51934522761234 1.8999999999999997
  endloop
endfacet
facet normal -1.0235593807464495e-16 1.6036157890473513e-17 -1.0
  outer loop
    vertex 113.514851 8.480654772387656 0.10000000000000209
    vertex 116.014851 -10.51934522761234 0.10000000000000002
    vertex 113.514851 -25.51934522761235 0.10000000000000032
  endloop
endfacet
facet normal -1.0235593807464495e-16 1.6036157890473513e-17 -1.0
  outer loop
    vertex 121.01485099999998 -25.51934522761235 0.10000000000000002
    vertex 113.514851 -25.51934522761235 0.10000000000000032
    vertex 116.014851 -10.51934522761234 0.10000000000000002
  endloop
endfacet
facet normal -1.0235593807464495e-16 1.6036157890473513e-17 -1.0
  outer loop
    vertex 121.01485099999998 -10.51934522761234 0.10000000000000002
    vertex 121.01485099999998 -25.51934522761235 0.10000000000000002
    vertex 116.014851 -10.51934522761234 0.10000000000000002
  endloop
endfacet
facet normal -1.0235593807464495e-16 1.6036157890473513e-17 -1.0
  outer loop
    vertex 116.014851 -10.51934522761234 0.10000000000000002
    vertex 113.514851 8.480654772387656 0.10000000000000209
    vertex 116.014851 8.480654772387656 0.10000000000000002
  endloop
endfacet
facet normal 1.0 0.0 0.0
  outer loop
    vertex 119.51485100000001 8.480654772387656 12.999999999999998
    vertex 119.51485100000001 6.480654772387658 6.0
    vertex 119.51485100000001 8.480654772387656 4.2
  endloop
endfacet
facet normal 1.0 0.0 0.0
  outer loop
    vertex 119.51485100000001 -1.5193452276123496 4.2
    vertex 119.51485100000001 8.480654772387656 4.2
    vertex 119.51485100000001 6.480654772387658 6.0
  endloop
endfacet
facet normal 1.0 0.0 0.0
  outer loop
    vertex 119.51485100000001 -1.5193452276123496 5.999999999999999
    vertex 119.51485100000001 -1.5193452276123496 4.2
    vertex 119.51485100000001 6.480654772387658 6.0
  endloop
endfacet
facet normal 1.0 0.0 0.0
  outer loop
    vertex 119.51485100000001 6.480654772387658 6.0
    vertex 119.51485100000001 8.480654772387656 12.999999999999998
    vertex 119.51485100000001 6.480654772387658 12.999999999999998
  endloop
endfacet
facet normal 2.386776898141695e-16 -1.0 4.1690426168414225e-16
  outer loop
    vertex 113.514851 -25.51934522761235 0.10000000000000032
    vertex 116.014851 -25.51934522761235 1.8999999999999997
    vertex 113.514851 -25.51934522761235 6.0
  endloop
endfacet
facet normal 2.386776898141695e-16 -1.0 4.1690426168414225e-16
  outer loop
    vertex 116.014851 -25.51934522761234 4.200000000000001
    vertex 113.514851 -25.51934522761235 6.0
    vertex 116.014851 -25.51934522761235 1.8999999999999997
  endloop
endfacet
facet normal 2.386776898141695e-16 -1.0 4.1690426168414225e-16
  outer loop
    vertex 121.01485099999998 -25.51934522761234 4.200000000000001
    vertex 113.514851 -25.51934522761235 6.0
    vertex 116.014851 -25.51934522761234 4.200000000000001
  endloop
endfacet
facet normal 2.386776898141695e-16 -1.0 4.1690426168414225e-16
  outer loop
    vertex 121.01485100000002 -25.51934522761235 6.0
    vertex 113.514851 -25.51934522761235 6.0
    vertex 121.01485099999998 -25.51934522761234 4.200000000000001
  endloop
endfacet
facet normal 2.386776898141695e-16 -1.0 4.1690426168414225e-16
  outer loop
    vertex 121.01485099999998 -25.51934522761235 0.10000000000000002
    vertex 121.01485099999998 -25.51934522761235 1.8999999999999997
    vertex 113.514851 -25.51934522761235 0.10000000000000032
  endloop
endfacet
facet normal 2.386776898141695e-16 -1.0 4.1690426168414225e-16
  outer loop
    vertex 116.014851 -25.51934522761235 1.8999999999999997
    vertex 113.514851 -25.51934522761235 0.10000000000000032
    vertex 121.01485099999998 -25.51934522761235 1.8999999999999997
  endloop
endfacet
facet normal 1.0 0.0 0.0
  outer loop
    vertex 116.014851 -10.51934522761234 1.8999999999999997
    vertex 116.014851 -10.51934522761234 4.200000000000001
    vertex 116.014851 -25.51934522761235 1.8999999999999997
  endloop
endfacet
facet normal 1.0 0.0 0.0
  outer loop
    vertex 116.014851 -25.51934522761234 4.200000000000001
    vertex 116.014851 -25.51934522761235 1.8999999999999997
    vertex 116.014851 -10.51934522761234 4.200000000000001
  endloop
endfacet
facet normal 1.0 0.0 0.0
  outer loop
    vertex 116.014851 8.480654772387656 0.10000000000000002
    vertex 116.014851 8.480654772387656 1.9999999999999996
    vertex 116.014851 -10.51934522761234 0.10000000000000002
  endloop
endfacet
facet normal 1.0 0.0 0.0
  outer loop
    vertex 116.014851 8.480654772387656 4.2
    vertex 116.014851 -10.51934522761234 0.10000000000000002
    vertex 116.014851 8.480654772387656 1.9999999999999996
  endloop
endfacet
facet normal 1.0 0.0 0.0
  outer loop
    vertex 116.014851 -1.5193452276123496 4.2
    vertex 116.014851 -10.51934522761234 0.10000000000000002
    vertex 116.014851 8.480654772387656 4.2
  endloop
endfacet
facet normal 1.0 0.0 0.0
  outer loop
    vertex 116.014851 -1.5193452276123496 6.0
    vertex 116.014851 -10.51934522761234 0.10000000000000002
    vertex 116.014851 -1.5193452276123496 4.2
  endloop
endfacet
facet normal 1.0 0.0 0.0
  outer loop
    vertex 116.014851 -10.51934522761234 6.0
    vertex 116.014851 -10.51934522761234 0.10000000000000002
    vertex 116.014851 -1.5193452276123496 6.0
  endloop
endfacet
facet normal 1.0 0.0 0.0
  outer loop
    vertex 116.014851 -10.51934522761234 1.8999999999999997
    vertex 116.014851 -10.51934522761234 0.10000000000000002
    vertex 116.014851 -10.51934522761234 6.0
  endloop
endfacet
facet normal 1.0 0.0 0.0
  outer loop
    vertex 116.014851 -10.51934522761234 4.200000000000001
    vertex 116.014851 -10.51934522761234 1.8999999999999997
    vertex 116.014851 -10.51934522761234 6.0
  endloop
endfacet
facet normal 0.0 1.0 0.0
  outer loop
    vertex 121.01485099999998 -10.51934522761234 4.200000000000001
    vertex 116.014851 -10.51934522761234 4.200000000000001
    vertex 121.01485100000002 -10.51934522761234 6.0
  endloop
endfacet
facet normal 0.0 1.0 0.0
  outer loop
    vertex 116.014851 -10.51934522761234 6.0
    vertex 121.01485100000002 -10.51934522761234 6.0
    vertex 116.014851 -10.51934522761234 4.200000000000001
  endloop
endfacet
facet normal 0.0 0.0 -1.0
  outer loop
    vertex 116.014851 -25.51934522761234 4.200000000000001
    vertex 116.014851 -10.51934522761234 4.200000000000001
    vertex 121.01485099999998 -25.51934522761234 4.200000000000001
  endloop
endfacet
facet normal 0.0 0.0 -1.0
  outer loop
    vertex 121.01485099999998 -10.51934522761234 4.200000000000001
    vertex 121.01485099999998 -25.51934522761234 4.200000000000001
    vertex 116.014851 -10.51934522761234 4.200000000000001
  endloop
endfacet
facet normal 1.0 8.835789958548103e-33 -2.5066368733759096e-14
  outer loop
    vertex 121.01485099999998 -10.51934522761234 4.200000000000001
    vertex 121.01485100000002 -10.51934522761234 6.0
    vertex 121.01485099999998 -25.51934522761234 4.200000000000001
  endloop
endfacet
facet normal 1.0 8.835789958548103e-33 -2.5066368733759096e-14
  outer loop
    vertex 121.01485100000002 -25.51934522761235 6.0
    vertex 121.01485099999998 -25.51934522761234 4.200000000000001
    vertex 121.01485100000002 -10.51934522761234 6.0
  endloop
endfacet
endsolid PCB_fold_v2
