solid linked-remake
facet normal 0.0 0.0 1.0
  outer loop
    vertex 116.014851 -19.519345227612334 1.7999999999999998
    vertex 116.014851 -34.51934522761244 1.7999999999999998
    vertex 131.014851 -19.519345227612334 1.7999999999999998
  endloop
endfacet
facet normal 0.0 0.0 1.0
  outer loop
    vertex 131.014851 -34.51934522761233 1.7999999999999998
    vertex 131.014851 -19.519345227612334 1.7999999999999998
    vertex 116.014851 -34.51934522761244 1.7999999999999998
  endloop
endfacet
facet normal 0.0 1.0 0.0
  outer loop
    vertex 131.014851 -19.519345227612334 0.0
    vertex 116.014851 -19.519345227612334 0.0
    vertex 131.014851 -19.519345227612334 1.7999999999999998
  endloop
endfacet
facet normal 0.0 1.0 0.0
  outer loop
    vertex 116.014851 -19.519345227612334 1.7999999999999998
    vertex 131.014851 -19.519345227612334 1.7999999999999998
    vertex 116.014851 -19.519345227612334 0.0
  endloop
endfacet
facet normal 2.239320015040392e-15 -1.0 -3.2774857815069013e-15
  outer loop
    vertex 131.014851 -34.51934522761233 0.0
    vertex 116.014851 -34.51934522761244 1.7999999999999998
    vertex 113.514851 -34.51934522761233 0.0
  endloop
endfacet
facet normal 2.239320015040392e-15 -1.0 -3.2774857815069013e-15
  outer loop
    vertex 113.514851 -34.51934522761244 6.000000000000001
    vertex 113.514851 -34.51934522761233 0.0
    vertex 116.014851 -34.51934522761244 1.7999999999999998
  endloop
endfacet
facet normal 2.239320015040392e-15 -1.0 -3.2774857815069013e-15
  outer loop
    vertex 116.014851 -34.51934522761233 4.200000000000001
    vertex 113.514851 -34.51934522761244 6.000000000000001
    vertex 116.014851 -34.51934522761244 1.7999999999999998
  endloop
endfacet
facet normal 2.239320015040392e-15 -1.0 -3.2774857815069013e-15
  outer loop
    vertex 131.014851 -34.51934522761233 4.200000000000001
    vertex 113.514851 -34.51934522761244 6.000000000000001
    vertex 116.014851 -34.51934522761233 4.200000000000001
  endloop
endfacet
facet normal 2.239320015040392e-15 -1.0 -3.2774857815069013e-15
  outer loop
    vertex 131.014851 -34.51934522761233 5.999999999999999
    vertex 113.514851 -34.51934522761244 6.000000000000001
    vertex 131.014851 -34.51934522761233 4.200000000000001
  endloop
endfacet
facet normal 2.239320015040392e-15 -1.0 -3.2774857815069013e-15
  outer loop
    vertex 116.014851 -34.51934522761244 1.7999999999999998
    vertex 131.014851 -34.51934522761233 0.0
    vertex 131.014851 -34.51934522761233 1.7999999999999998
  endloop
endfacet
facet normal 1.0 0.0 0.0
  outer loop
    vertex 131.014851 -19.519345227612334 0.0
    vertex 131.014851 -19.519345227612334 1.7999999999999998
    vertex 131.014851 -34.51934522761233 0.0
  endloop
endfacet
facet normal 1.0 0.0 0.0
  outer loop
    vertex 131.014851 -34.51934522761233 1.7999999999999998
    vertex 131.014851 -34.51934522761233 0.0
    vertex 131.014851 -19.519345227612334 1.7999999999999998
  endloop
endfacet
facet normal 1.0 0.0 0.0
  outer loop
    vertex 131.014851 -19.519345227612334 4.200000000000001
    vertex 131.014851 -19.519345227612334 5.999999999999999
    vertex 131.014851 -34.51934522761233 4.200000000000001
  endloop
endfacet
facet normal 1.0 0.0 0.0
  outer loop
    vertex 131.014851 -34.51934522761233 5.999999999999999
    vertex 131.014851 -34.51934522761233 4.200000000000001
    vertex 131.014851 -19.519345227612334 5.999999999999999
  endloop
endfacet
facet normal 0.0 0.0 -1.0
  outer loop
    vertex 116.014851 -34.51934522761233 4.200000000000001
    vertex 116.014851 -19.519345227612334 4.200000000000001
    vertex 131.014851 -34.51934522761233 4.200000000000001
  endloop
endfacet
facet normal 0.0 0.0 -1.0
  outer loop
    vertex 131.014851 -19.519345227612334 4.200000000000001
    vertex 131.014851 -34.51934522761233 4.200000000000001
    vertex 116.014851 -19.519345227612334 4.200000000000001
  endloop
endfacet
facet normal 0.0 1.0 0.0
  outer loop
    vertex 131.014851 -19.519345227612334 4.200000000000001
    vertex 116.014851 -19.519345227612334 4.200000000000001
    vertex 131.014851 -19.519345227612334 5.999999999999999
  endloop
endfacet
facet normal 0.0 1.0 0.0
  outer loop
    vertex 116.014851 -19.519345227612334 6.000000000000001
    vertex 131.014851 -19.519345227612334 5.999999999999999
    vertex 116.014851 -19.519345227612334 4.200000000000001
  endloop
endfacet
facet normal 1.2299693308418812e-16 3.202033521219255e-18 1.0
  outer loop
    vertex 119.51485100000001 12.480654772387654 6.0
    vertex 119.51485100000001 10.480654772387657 6.0
    vertex 121.01485099999998 12.480654772387654 6.0
  endloop
endfacet
facet normal 1.2299693308418812e-16 3.202033521219255e-18 1.0
  outer loop
    vertex 113.514851 -34.51934522761244 6.000000000000001
    vertex 116.014851 2.480654772387649 6.0
    vertex 113.514851 10.480654772387657 6.000000000000001
  endloop
endfacet
facet normal 1.2299693308418812e-16 3.202033521219255e-18 1.0
  outer loop
    vertex 119.51485100000001 10.480654772387657 6.0
    vertex 113.514851 10.480654772387657 6.000000000000001
    vertex 116.014851 2.480654772387649 6.0
  endloop
endfacet
facet normal 1.2299693308418812e-16 3.202033521219255e-18 1.0
  outer loop
    vertex 121.01485099999998 2.480654772387649 6.0
    vertex 119.51485100000001 10.480654772387657 6.0
    vertex 116.014851 2.480654772387649 6.0
  endloop
endfacet
facet normal 1.2299693308418812e-16 3.202033521219255e-18 1.0
  outer loop
    vertex 121.01485099999998 12.480654772387654 6.0
    vertex 119.51485100000001 10.480654772387657 6.0
    vertex 121.01485099999998 2.480654772387649 6.0
  endloop
endfacet
facet normal 1.2299693308418812e-16 3.202033521219255e-18 1.0
  outer loop
    vertex 131.014851 -34.51934522761233 5.999999999999999
    vertex 116.014851 -19.519345227612334 6.000000000000001
    vertex 113.514851 -34.51934522761244 6.000000000000001
  endloop
endfacet
facet normal 1.2299693308418812e-16 3.202033521219255e-18 1.0
  outer loop
    vertex 116.014851 2.480654772387649 6.0
    vertex 113.514851 -34.51934522761244 6.000000000000001
    vertex 116.014851 -19.519345227612334 6.000000000000001
  endloop
endfacet
facet normal 1.2299693308418812e-16 3.202033521219255e-18 1.0
  outer loop
    vertex 131.014851 -19.519345227612334 5.999999999999999
    vertex 116.014851 -19.519345227612334 6.000000000000001
    vertex 131.014851 -34.51934522761233 5.999999999999999
  endloop
endfacet
facet normal 1.0 0.0 0.0
  outer loop
    vertex 116.014851 -19.519345227612334 1.7999999999999998
    vertex 116.014851 -19.519345227612334 4.200000000000001
    vertex 116.014851 -34.51934522761244 1.7999999999999998
  endloop
endfacet
facet normal 1.0 0.0 0.0
  outer loop
    vertex 116.014851 -34.51934522761233 4.200000000000001
    vertex 116.014851 -34.51934522761244 1.7999999999999998
    vertex 116.014851 -19.519345227612334 4.200000000000001
  endloop
endfacet
facet normal 1.0 0.0 0.0
  outer loop
    vertex 116.014851 2.480654772387649 7.8269792939897265e-31
    vertex 116.014851 2.480654772387649 1.7999999999999996
    vertex 116.014851 -19.519345227612334 0.0
  endloop
endfacet
facet normal 1.0 0.0 0.0
  outer loop
    vertex 116.014851 2.480654772387649 4.2
    vertex 116.014851 -19.519345227612334 0.0
    vertex 116.014851 2.480654772387649 1.7999999999999996
  endloop
endfacet
facet normal 1.0 0.0 0.0
  outer loop
    vertex 116.014851 2.480654772387649 6.0
    vertex 116.014851 -19.519345227612334 0.0
    vertex 116.014851 2.480654772387649 4.2
  endloop
endfacet
facet normal 1.0 0.0 0.0
  outer loop
    vertex 116.014851 -19.519345227612334 6.000000000000001
    vertex 116.014851 -19.519345227612334 0.0
    vertex 116.014851 2.480654772387649 6.0
  endloop
endfacet
facet normal 1.0 0.0 0.0
  outer loop
    vertex 116.014851 -19.519345227612334 1.7999999999999998
    vertex 116.014851 -19.519345227612334 0.0
    vertex 116.014851 -19.519345227612334 6.000000000000001
  endloop
endfacet
facet normal 1.0 0.0 0.0
  outer loop
    vertex 116.014851 -19.519345227612334 4.200000000000001
    vertex 116.014851 -19.519345227612334 1.7999999999999998
    vertex 116.014851 -19.519345227612334 6.000000000000001
  endloop
endfacet
facet normal 1.0 0.0 0.0
  outer loop
    vertex 116.014851 12.480654772387654 1.7999999999999996
    vertex 116.014851 12.480654772387654 1.9999999999999996
    vertex 116.014851 2.480654772387649 1.7999999999999996
  endloop
endfacet
facet normal 1.0 0.0 0.0
  outer loop
    vertex 116.014851 12.480654772387654 4.2
    vertex 116.014851 2.480654772387649 1.7999999999999996
    vertex 116.014851 12.480654772387654 1.9999999999999996
  endloop
endfacet
facet normal 1.0 0.0 0.0
  outer loop
    vertex 116.014851 2.480654772387649 4.2
    vertex 116.014851 2.480654772387649 1.7999999999999996
    vertex 116.014851 12.480654772387654 4.2
  endloop
endfacet
facet normal 1.0 0.0 0.0
  outer loop
    vertex 121.01485099999998 12.480654772387654 1.2523166870383562e-30
    vertex 121.01485099999998 12.480654772387654 1.7999999999999996
    vertex 121.01485099999998 2.480654772387649 7.8269792939897265e-31
  endloop
endfacet
facet normal 1.0 0.0 0.0
  outer loop
    vertex 121.01485099999998 2.480654772387649 1.7999999999999996
    vertex 121.01485099999998 2.480654772387649 7.8269792939897265e-31
    vertex 121.01485099999998 12.480654772387654 1.7999999999999996
  endloop
endfacet
facet normal 0.0 -1.0 0.0
  outer loop
    vertex 116.014851 2.480654772387649 7.8269792939897265e-31
    vertex 121.01485099999998 2.480654772387649 7.8269792939897265e-31
    vertex 116.014851 2.480654772387649 1.7999999999999996
  endloop
endfacet
facet normal 0.0 -1.0 0.0
  outer loop
    vertex 121.01485099999998 2.480654772387649 1.7999999999999996
    vertex 116.014851 2.480654772387649 1.7999999999999996
    vertex 121.01485099999998 2.480654772387649 7.8269792939897265e-31
  endloop
endfacet
facet normal 0.0 0.0 1.0
  outer loop
    vertex 116.014851 12.480654772387654 1.7999999999999996
    vertex 116.014851 2.480654772387649 1.7999999999999996
    vertex 121.01485099999998 12.480654772387654 1.7999999999999996
  endloop
endfacet
facet normal 0.0 0.0 1.0
  outer loop
    vertex 121.01485099999998 2.480654772387649 1.7999999999999996
    vertex 121.01485099999998 12.480654772387654 1.7999999999999996
    vertex 116.014851 2.480654772387649 1.7999999999999996
  endloop
endfacet
facet normal 1.0 0.0 0.0
  outer loop
    vertex 121.01485099999998 12.480654772387654 4.2
    vertex 121.01485099999998 12.480654772387654 6.0
    vertex 121.01485099999998 2.480654772387649 4.2
  endloop
endfacet
facet normal 1.0 0.0 0.0
  outer loop
    vertex 121.01485099999998 2.480654772387649 6.0
    vertex 121.01485099999998 2.480654772387649 4.2
    vertex 121.01485099999998 12.480654772387654 6.0
  endloop
endfacet
facet normal 0.0 0.0 -1.0
  outer loop
    vertex 116.014851 2.480654772387649 4.2
    vertex 116.014851 12.480654772387654 4.2
    vertex 121.01485099999998 2.480654772387649 4.2
  endloop
endfacet
facet normal 0.0 0.0 -1.0
  outer loop
    vertex 121.01485099999998 12.480654772387654 4.2
    vertex 121.01485099999998 2.480654772387649 4.2
    vertex 116.014851 12.480654772387654 4.2
  endloop
endfacet
facet normal 0.0 -1.0 0.0
  outer loop
    vertex 116.014851 2.480654772387649 4.2
    vertex 121.01485099999998 2.480654772387649 4.2
    vertex 116.014851 2.480654772387649 6.0
  endloop
endfacet
facet normal 0.0 -1.0 0.0
  outer loop
    vertex 121.01485099999998 2.480654772387649 6.0
    vertex 116.014851 2.480654772387649 6.0
    vertex 121.01485099999998 2.480654772387649 4.2
  endloop
endfacet
facet normal -2.4164682035619777e-17 9.77518485645055e-18 -1.0
  outer loop
    vertex 113.514851 12.480654772387654 2.074302268412635e-15
    vertex 116.014851 -19.519345227612334 0.0
    vertex 113.514851 -34.51934522761233 0.0
  endloop
endfacet
facet normal -2.4164682035619777e-17 9.77518485645055e-18 -1.0
  outer loop
    vertex 131.014851 -34.51934522761233 0.0
    vertex 113.514851 -34.51934522761233 0.0
    vertex 116.014851 -19.519345227612334 0.0
  endloop
endfacet
facet normal -2.4164682035619777e-17 9.77518485645055e-18 -1.0
  outer loop
    vertex 131.014851 -19.519345227612334 0.0
    vertex 131.014851 -34.51934522761233 0.0
    vertex 116.014851 -19.519345227612334 0.0
  endloop
endfacet
facet normal -2.4164682035619777e-17 9.77518485645055e-18 -1.0
  outer loop
    vertex 121.01485099999998 12.480654772387654 1.2523166870383562e-30
    vertex 116.014851 2.480654772387649 7.8269792939897265e-31
    vertex 113.514851 12.480654772387654 2.074302268412635e-15
  endloop
endfacet
facet normal -2.4164682035619777e-17 9.77518485645055e-18 -1.0
  outer loop
    vertex 116.014851 -19.519345227612334 0.0
    vertex 113.514851 12.480654772387654 2.074302268412635e-15
    vertex 116.014851 2.480654772387649 7.8269792939897265e-31
  endloop
endfacet
facet normal -2.4164682035619777e-17 9.77518485645055e-18 -1.0
  outer loop
    vertex 121.01485099999998 2.480654772387649 7.8269792939897265e-31
    vertex 116.014851 2.480654772387649 7.8269792939897265e-31
    vertex 121.01485099999998 12.480654772387654 1.2523166870383562e-30
  endloop
endfacet
facet normal -1.0 0.0 0.0
  outer loop
    vertex 113.514851 12.480654772387654 6.000000000000001
    vertex 113.514851 12.480654772387654 2.074302268412635e-15
    vertex 113.514851 10.480654772387657 6.000000000000001
  endloop
endfacet
facet normal -1.0 0.0 0.0
  outer loop
    vertex 113.514851 -34.51934522761233 0.0
    vertex 113.514851 10.480654772387657 6.000000000000001
    vertex 113.514851 12.480654772387654 2.074302268412635e-15
  endloop
endfacet
facet normal -1.0 0.0 0.0
  outer loop
    vertex 113.514851 -34.51934522761244 6.000000000000001
    vertex 113.514851 10.480654772387657 6.000000000000001
    vertex 113.514851 -34.51934522761233 0.0
  endloop
endfacet
facet normal 1.0 0.0 0.0
  outer loop
    vertex 119.51485100000001 12.480654772387654 6.0
    vertex 119.51485100000001 12.480654772387654 12.999999999999998
    vertex 119.51485100000001 10.480654772387657 6.0
  endloop
endfacet
facet normal 1.0 0.0 0.0
  outer loop
    vertex 119.51485100000001 10.480654772387657 12.999999999999998
    vertex 119.51485100000001 10.480654772387657 6.0
    vertex 119.51485100000001 12.480654772387654 12.999999999999998
  endloop
endfacet
facet normal -1.0 0.0 3.222818837197599e-15
  outer loop
    vertex 113.51485100000002 12.480654772387654 12.999999999999998
    vertex 113.514851 12.480654772387654 6.000000000000001
    vertex 113.51485100000002 10.480654772387657 12.999999999999998
  endloop
endfacet
facet normal -1.0 0.0 3.222818837197599e-15
  outer loop
    vertex 113.514851 10.480654772387657 6.000000000000001
    vertex 113.51485100000002 10.480654772387657 12.999999999999998
    vertex 113.514851 12.480654772387654 6.000000000000001
  endloop
endfacet
facet normal 0.0 1.0 0.0
  outer loop
    vertex 121.01485099999998 12.480654772387654 4.2
    vertex 116.014851 12.480654772387654 4.2
    vertex 121.01485099999998 12.480654772387654 6.0
  endloop
endfacet
facet normal 0.0 1.0 0.0
  outer loop
    vertex 121.01485099999998 12.480654772387654 1.2523166870383562e-30
    vertex 113.514851 12.480654772387654 2.074302268412635e-15
    vertex 121.01485099999998 12.480654772387654 1.7999999999999996
  endloop
endfacet
facet normal 0.0 1.0 0.0
  outer loop
    vertex 116.014851 12.480654772387654 1.7999999999999996
    vertex 121.01485099999998 12.480654772387654 1.7999999999999996
    vertex 113.514851 12.480654772387654 2.074302268412635e-15
  endloop
endfacet
facet normal 0.0 1.0 0.0
  outer loop
    vertex 113.514851 12.480654772387654 6.000000000000001
    vertex 116.014851 12.480654772387654 1.7999999999999996
    vertex 113.514851 12.480654772387654 2.074302268412635e-15
  endloop
endfacet
facet normal 0.0 1.0 0.0
  outer loop
    vertex 116.014851 12.480654772387654 1.9999999999999996
    vertex 116.014851 12.480654772387654 1.7999999999999996
    vertex 113.514851 12.480654772387654 6.000000000000001
  endloop
endfacet
facet normal 0.0 1.0 0.0
  outer loop
    vertex 116.014851 12.480654772387654 4.2
    vertex 116.014851 12.480654772387654 1.9999999999999996
    vertex 113.514851 12.480654772387654 6.000000000000001
  endloop
endfacet
facet normal 0.0 1.0 0.0
  outer loop
    vertex 121.01485099999998 12.480654772387654 6.0
    vertex 116.014851 12.480654772387654 4.2
    vertex 113.514851 12.480654772387654 6.000000000000001
  endloop
endfacet
facet normal 0.0 1.0 0.0
  outer loop
    vertex 119.51485100000001 12.480654772387654 6.0
    vertex 121.01485099999998 12.480654772387654 6.0
    vertex 113.514851 12.480654772387654 6.000000000000001
  endloop
endfacet
facet normal -2.3942521332922887e-46 1.0 1.083021878903119e-31
  outer loop
    vertex 119.51485100000001 12.480654772387654 6.0
    vertex 113.514851 12.480654772387654 6.000000000000001
    vertex 119.51485100000001 12.480654772387654 12.999999999999998
  endloop
endfacet
facet normal -2.3942521332922887e-46 1.0 1.083021878903119e-31
  outer loop
    vertex 116.77367004510252 12.480654772387654 12.034074173710929
    vertex 119.51485100000001 12.480654772387654 12.999999999999998
    vertex 113.514851 12.480654772387654 6.000000000000001
  endloop
endfacet
facet normal -2.3942521332922887e-46 1.0 1.083021878903119e-31
  outer loop
    vertex 116.51485100000001 12.480654772387654 11.999999999999998
    vertex 116.77367004510252 12.480654772387654 12.034074173710929
    vertex 113.514851 12.480654772387654 6.000000000000001
  endloop
endfacet
facet normal -2.3942521332922887e-46 1.0 1.083021878903119e-31
  outer loop
    vertex 117.01485100000001 12.480654772387654 12.133974596215559
    vertex 119.51485100000001 12.480654772387654 12.999999999999998
    vertex 116.77367004510252 12.480654772387654 12.034074173710929
  endloop
endfacet
facet normal -2.3942521332922887e-46 1.0 1.083021878903119e-31
  outer loop
    vertex 117.22195778118656 12.480654772387654 12.292893218813452
    vertex 119.51485100000001 12.480654772387654 12.999999999999998
    vertex 117.01485100000001 12.480654772387654 12.133974596215559
  endloop
endfacet
facet normal -2.3942521332922887e-46 1.0 1.083021878903119e-31
  outer loop
    vertex 117.38087640378444 12.480654772387654 12.5
    vertex 119.51485100000001 12.480654772387654 12.999999999999998
    vertex 117.22195778118656 12.480654772387654 12.292893218813452
  endloop
endfacet
facet normal -2.3942521332922887e-46 1.0 1.083021878903119e-31
  outer loop
    vertex 117.48077682628907 12.480654772387654 12.741180954897478
    vertex 119.51485100000001 12.480654772387654 12.999999999999998
    vertex 117.38087640378444 12.480654772387654 12.5
  endloop
endfacet
facet normal -2.3942521332922887e-46 1.0 1.083021878903119e-31
  outer loop
    vertex 117.51485100000001 12.480654772387654 12.999999999999998
    vertex 119.51485100000001 12.480654772387654 12.999999999999998
    vertex 117.48077682628907 12.480654772387654 12.741180954897478
  endloop
endfacet
facet normal -2.3942521332922887e-46 1.0 1.083021878903119e-31
  outer loop
    vertex 119.41262847886722 12.480654772387654 13.776457135307565
    vertex 119.51485100000001 12.480654772387654 12.999999999999998
    vertex 117.51485100000001 12.480654772387654 12.999999999999998
  endloop
endfacet
facet normal -2.3942521332922887e-46 1.0 1.083021878903119e-31
  outer loop
    vertex 117.48077682628907 12.480654772387654 13.258819045102522
    vertex 119.41262847886722 12.480654772387654 13.776457135307565
    vertex 117.51485100000001 12.480654772387654 12.999999999999998
  endloop
endfacet
facet normal -2.3942521332922887e-46 1.0 1.083021878903119e-31
  outer loop
    vertex 117.38087640378444 12.480654772387654 13.499999999999998
    vertex 119.41262847886722 12.480654772387654 13.776457135307565
    vertex 117.48077682628907 12.480654772387654 13.258819045102522
  endloop
endfacet
facet normal -2.3942521332922887e-46 1.0 1.083021878903119e-31
  outer loop
    vertex 117.22195778118656 12.480654772387654 13.707106781186544
    vertex 119.41262847886722 12.480654772387654 13.776457135307565
    vertex 117.38087640378444 12.480654772387654 13.499999999999998
  endloop
endfacet
facet normal -2.3942521332922887e-46 1.0 1.083021878903119e-31
  outer loop
    vertex 117.01485100000001 12.480654772387654 13.866025403784437
    vertex 119.41262847886722 12.480654772387654 13.776457135307565
    vertex 117.22195778118656 12.480654772387654 13.707106781186544
  endloop
endfacet
facet normal -2.3942521332922887e-46 1.0 1.083021878903119e-31
  outer loop
    vertex 119.11292721135334 12.480654772387654 14.499999999999998
    vertex 119.41262847886722 12.480654772387654 13.776457135307565
    vertex 117.01485100000001 12.480654772387654 13.866025403784437
  endloop
endfacet
facet normal -2.3942521332922887e-46 1.0 1.083021878903119e-31
  outer loop
    vertex 116.77367004510252 12.480654772387654 13.965925826289068
    vertex 119.11292721135334 12.480654772387654 14.499999999999998
    vertex 117.01485100000001 12.480654772387654 13.866025403784437
  endloop
endfacet
facet normal -2.3942521332922887e-46 1.0 1.083021878903119e-31
  outer loop
    vertex 116.51485100000001 12.480654772387654 13.999999999999996
    vertex 119.11292721135334 12.480654772387654 14.499999999999998
    vertex 116.77367004510252 12.480654772387654 13.965925826289068
  endloop
endfacet
facet normal -2.3942521332922887e-46 1.0 1.083021878903119e-31
  outer loop
    vertex 113.51485100000002 12.480654772387654 12.999999999999998
    vertex 116.2560319548975 12.480654772387654 12.034074173710929
    vertex 113.514851 12.480654772387654 6.000000000000001
  endloop
endfacet
facet normal -2.3942521332922887e-46 1.0 1.083021878903119e-31
  outer loop
    vertex 116.51485100000001 12.480654772387654 11.999999999999998
    vertex 113.514851 12.480654772387654 6.000000000000001
    vertex 116.2560319548975 12.480654772387654 12.034074173710929
  endloop
endfacet
facet normal -2.3942521332922887e-46 1.0 1.083021878903119e-31
  outer loop
    vertex 116.01485100000001 12.480654772387654 12.133974596215559
    vertex 116.2560319548975 12.480654772387654 12.034074173710929
    vertex 113.51485100000002 12.480654772387654 12.999999999999998
  endloop
endfacet
facet normal -2.3942521332922887e-46 1.0 1.083021878903119e-31
  outer loop
    vertex 115.80774421881347 12.480654772387654 12.29289321881345
    vertex 116.01485100000001 12.480654772387654 12.133974596215559
    vertex 113.51485100000002 12.480654772387654 12.999999999999998
  endloop
endfacet
facet normal -2.3942521332922887e-46 1.0 1.083021878903119e-31
  outer loop
    vertex 115.64882559621557 12.480654772387654 12.499999999999996
    vertex 115.80774421881347 12.480654772387654 12.29289321881345
    vertex 113.51485100000002 12.480654772387654 12.999999999999998
  endloop
endfacet
facet normal -2.3942521332922887e-46 1.0 1.083021878903119e-31
  outer loop
    vertex 115.54892517371096 12.480654772387654 12.741180954897478
    vertex 115.64882559621557 12.480654772387654 12.499999999999996
    vertex 113.51485100000002 12.480654772387654 12.999999999999998
  endloop
endfacet
facet normal -2.3942521332922887e-46 1.0 1.083021878903119e-31
  outer loop
    vertex 115.51485100000001 12.480654772387654 12.999999999999998
    vertex 115.54892517371096 12.480654772387654 12.741180954897478
    vertex 113.51485100000002 12.480654772387654 12.999999999999998
  endloop
endfacet
facet normal -2.3942521332922887e-46 1.0 1.083021878903119e-31
  outer loop
    vertex 115.54892517371096 12.480654772387654 13.258819045102518
    vertex 115.51485100000001 12.480654772387654 12.999999999999998
    vertex 113.51485100000002 12.480654772387654 12.999999999999998
  endloop
endfacet
facet normal -2.3942521332922887e-46 1.0 1.083021878903119e-31
  outer loop
    vertex 113.61707352113281 12.480654772387654 13.776457135307561
    vertex 115.54892517371096 12.480654772387654 13.258819045102518
    vertex 113.51485100000002 12.480654772387654 12.999999999999998
  endloop
endfacet
facet normal -2.3942521332922887e-46 1.0 1.083021878903119e-31
  outer loop
    vertex 115.64882559621557 12.480654772387654 13.499999999999998
    vertex 115.54892517371096 12.480654772387654 13.258819045102518
    vertex 113.61707352113281 12.480654772387654 13.776457135307561
  endloop
endfacet
facet normal -2.3942521332922887e-46 1.0 1.083021878903119e-31
  outer loop
    vertex 115.80774421881347 12.480654772387654 13.707106781186544
    vertex 115.64882559621557 12.480654772387654 13.499999999999998
    vertex 113.61707352113281 12.480654772387654 13.776457135307561
  endloop
endfacet
facet normal -2.3942521332922887e-46 1.0 1.083021878903119e-31
  outer loop
    vertex 116.01485100000001 12.480654772387654 13.866025403784437
    vertex 115.80774421881347 12.480654772387654 13.707106781186544
    vertex 113.61707352113281 12.480654772387654 13.776457135307561
  endloop
endfacet
facet normal -2.3942521332922887e-46 1.0 1.083021878903119e-31
  outer loop
    vertex 113.91677478864669 12.480654772387654 14.499999999999998
    vertex 116.01485100000001 12.480654772387654 13.866025403784437
    vertex 113.61707352113281 12.480654772387654 13.776457135307561
  endloop
endfacet
facet normal -2.3942521332922887e-46 1.0 1.083021878903119e-31
  outer loop
    vertex 116.2560319548975 12.480654772387654 13.965925826289066
    vertex 116.01485100000001 12.480654772387654 13.866025403784437
    vertex 113.91677478864669 12.480654772387654 14.499999999999998
  endloop
endfacet
facet normal -2.3942521332922887e-46 1.0 1.083021878903119e-31
  outer loop
    vertex 116.51485100000001 12.480654772387654 13.999999999999996
    vertex 116.2560319548975 12.480654772387654 13.965925826289066
    vertex 113.91677478864669 12.480654772387654 14.499999999999998
  endloop
endfacet
facet normal -2.3942521332922887e-46 1.0 1.083021878903119e-31
  outer loop
    vertex 119.11292721135334 12.480654772387654 14.499999999999998
    vertex 116.51485100000001 12.480654772387654 13.999999999999996
    vertex 113.91677478864669 12.480654772387654 14.499999999999998
  endloop
endfacet
facet normal -2.3942521332922887e-46 1.0 1.083021878903119e-31
  outer loop
    vertex 118.63617134355965 12.480654772387654 15.12132034355964
    vertex 119.11292721135334 12.480654772387654 14.499999999999998
    vertex 113.91677478864669 12.480654772387654 14.499999999999998
  endloop
endfacet
facet normal -2.3942521332922887e-46 1.0 1.083021878903119e-31
  outer loop
    vertex 114.39353065644036 12.480654772387654 15.12132034355964
    vertex 118.63617134355965 12.480654772387654 15.12132034355964
    vertex 113.91677478864669 12.480654772387654 14.499999999999998
  endloop
endfacet
facet normal -2.3942521332922887e-46 1.0 1.083021878903119e-31
  outer loop
    vertex 118.01485100000001 12.480654772387654 15.598076211353316
    vertex 118.63617134355965 12.480654772387654 15.12132034355964
    vertex 114.39353065644036 12.480654772387654 15.12132034355964
  endloop
endfacet
facet normal -2.3942521332922887e-46 1.0 1.083021878903119e-31
  outer loop
    vertex 115.01485100000001 12.480654772387654 15.598076211353314
    vertex 118.01485100000001 12.480654772387654 15.598076211353316
    vertex 114.39353065644036 12.480654772387654 15.12132034355964
  endloop
endfacet
facet normal -2.3942521332922887e-46 1.0 1.083021878903119e-31
  outer loop
    vertex 115.73839386469245 12.480654772387654 15.897777478867203
    vertex 118.01485100000001 12.480654772387654 15.598076211353316
    vertex 115.01485100000001 12.480654772387654 15.598076211353314
  endloop
endfacet
facet normal -2.3942521332922887e-46 1.0 1.083021878903119e-31
  outer loop
    vertex 117.29130813530757 12.480654772387654 15.897777478867203
    vertex 118.01485100000001 12.480654772387654 15.598076211353316
    vertex 115.73839386469245 12.480654772387654 15.897777478867203
  endloop
endfacet
facet normal -2.3942521332922887e-46 1.0 1.083021878903119e-31
  outer loop
    vertex 116.51485100000001 12.480654772387654 15.999999999999998
    vertex 117.29130813530757 12.480654772387654 15.897777478867203
    vertex 115.73839386469245 12.480654772387654 15.897777478867203
  endloop
endfacet
facet normal -1.2098400253965159e-32 -1.0 -1.1568283782818113e-31
  outer loop
    vertex 116.51485100000001 10.480654772387679 11.999999999999998
    vertex 116.2560319548975 10.480654772387679 12.034074173710929
    vertex 113.514851 10.480654772387657 6.000000000000001
  endloop
endfacet
facet normal -1.2098400253965159e-32 -1.0 -1.1568283782818113e-31
  outer loop
    vertex 113.51485100000002 10.480654772387657 12.999999999999998
    vertex 113.514851 10.480654772387657 6.000000000000001
    vertex 116.2560319548975 10.480654772387679 12.034074173710929
  endloop
endfacet
facet normal -1.2098400253965159e-32 -1.0 -1.1568283782818113e-31
  outer loop
    vertex 116.01485100000001 10.480654772387679 12.133974596215559
    vertex 113.51485100000002 10.480654772387657 12.999999999999998
    vertex 116.2560319548975 10.480654772387679 12.034074173710929
  endloop
endfacet
facet normal -1.2098400253965159e-32 -1.0 -1.1568283782818113e-31
  outer loop
    vertex 115.80774421881347 10.480654772387679 12.29289321881345
    vertex 113.51485100000002 10.480654772387657 12.999999999999998
    vertex 116.01485100000001 10.480654772387679 12.133974596215559
  endloop
endfacet
facet normal -1.2098400253965159e-32 -1.0 -1.1568283782818113e-31
  outer loop
    vertex 115.64882559621557 10.480654772387679 12.499999999999996
    vertex 113.51485100000002 10.480654772387657 12.999999999999998
    vertex 115.80774421881347 10.480654772387679 12.29289321881345
  endloop
endfacet
facet normal -1.2098400253965159e-32 -1.0 -1.1568283782818113e-31
  outer loop
    vertex 115.54892517371096 10.480654772387679 12.741180954897478
    vertex 113.51485100000002 10.480654772387657 12.999999999999998
    vertex 115.64882559621557 10.480654772387679 12.499999999999996
  endloop
endfacet
facet normal -1.2098400253965159e-32 -1.0 -1.1568283782818113e-31
  outer loop
    vertex 115.51485100000001 10.480654772387679 12.999999999999998
    vertex 113.51485100000002 10.480654772387657 12.999999999999998
    vertex 115.54892517371096 10.480654772387679 12.741180954897478
  endloop
endfacet
facet normal -1.2098400253965159e-32 -1.0 -1.1568283782818113e-31
  outer loop
    vertex 113.61707352113281 10.480654772387657 13.776457135307561
    vertex 113.51485100000002 10.480654772387657 12.999999999999998
    vertex 115.51485100000001 10.480654772387679 12.999999999999998
  endloop
endfacet
facet normal -1.2098400253965159e-32 -1.0 -1.1568283782818113e-31
  outer loop
    vertex 115.54892517371096 10.480654772387679 13.258819045102518
    vertex 113.61707352113281 10.480654772387657 13.776457135307561
    vertex 115.51485100000001 10.480654772387679 12.999999999999998
  endloop
endfacet
facet normal -1.2098400253965159e-32 -1.0 -1.1568283782818113e-31
  outer loop
    vertex 115.64882559621557 10.480654772387679 13.499999999999998
    vertex 113.61707352113281 10.480654772387657 13.776457135307561
    vertex 115.54892517371096 10.480654772387679 13.258819045102518
  endloop
endfacet
facet normal -1.2098400253965159e-32 -1.0 -1.1568283782818113e-31
  outer loop
    vertex 115.80774421881347 10.480654772387679 13.707106781186544
    vertex 113.61707352113281 10.480654772387657 13.776457135307561
    vertex 115.64882559621557 10.480654772387679 13.499999999999998
  endloop
endfacet
facet normal -1.2098400253965159e-32 -1.0 -1.1568283782818113e-31
  outer loop
    vertex 116.01485100000001 10.480654772387679 13.866025403784437
    vertex 113.61707352113281 10.480654772387657 13.776457135307561
    vertex 115.80774421881347 10.480654772387679 13.707106781186544
  endloop
endfacet
facet normal -1.2098400253965159e-32 -1.0 -1.1568283782818113e-31
  outer loop
    vertex 113.91677478864669 10.480654772387657 14.499999999999998
    vertex 113.61707352113281 10.480654772387657 13.776457135307561
    vertex 116.01485100000001 10.480654772387679 13.866025403784437
  endloop
endfacet
facet normal -1.2098400253965159e-32 -1.0 -1.1568283782818113e-31
  outer loop
    vertex 116.2560319548975 10.480654772387679 13.965925826289066
    vertex 113.91677478864669 10.480654772387657 14.499999999999998
    vertex 116.01485100000001 10.480654772387679 13.866025403784437
  endloop
endfacet
facet normal -1.2098400253965159e-32 -1.0 -1.1568283782818113e-31
  outer loop
    vertex 116.51485100000001 10.480654772387679 13.999999999999996
    vertex 113.91677478864669 10.480654772387657 14.499999999999998
    vertex 116.2560319548975 10.480654772387679 13.965925826289066
  endloop
endfacet
facet normal -1.2098400253965159e-32 -1.0 -1.1568283782818113e-31
  outer loop
    vertex 119.51485100000001 10.480654772387657 6.0
    vertex 119.51485100000001 10.480654772387657 12.999999999999998
    vertex 113.514851 10.480654772387657 6.000000000000001
  endloop
endfacet
facet normal -1.2098400253965159e-32 -1.0 -1.1568283782818113e-31
  outer loop
    vertex 116.77367004510252 10.480654772387679 12.034074173710929
    vertex 113.514851 10.480654772387657 6.000000000000001
    vertex 119.51485100000001 10.480654772387657 12.999999999999998
  endloop
endfacet
facet normal -1.2098400253965159e-32 -1.0 -1.1568283782818113e-31
  outer loop
    vertex 116.51485100000001 10.480654772387679 11.999999999999998
    vertex 113.514851 10.480654772387657 6.000000000000001
    vertex 116.77367004510252 10.480654772387679 12.034074173710929
  endloop
endfacet
facet normal -1.2098400253965159e-32 -1.0 -1.1568283782818113e-31
  outer loop
    vertex 117.01485100000001 10.480654772387679 12.133974596215559
    vertex 116.77367004510252 10.480654772387679 12.034074173710929
    vertex 119.51485100000001 10.480654772387657 12.999999999999998
  endloop
endfacet
facet normal -1.2098400253965159e-32 -1.0 -1.1568283782818113e-31
  outer loop
    vertex 117.22195778118656 10.480654772387679 12.292893218813452
    vertex 117.01485100000001 10.480654772387679 12.133974596215559
    vertex 119.51485100000001 10.480654772387657 12.999999999999998
  endloop
endfacet
facet normal -1.2098400253965159e-32 -1.0 -1.1568283782818113e-31
  outer loop
    vertex 117.38087640378444 10.480654772387679 12.5
    vertex 117.22195778118656 10.480654772387679 12.292893218813452
    vertex 119.51485100000001 10.480654772387657 12.999999999999998
  endloop
endfacet
facet normal -1.2098400253965159e-32 -1.0 -1.1568283782818113e-31
  outer loop
    vertex 117.48077682628907 10.480654772387679 12.741180954897478
    vertex 117.38087640378444 10.480654772387679 12.5
    vertex 119.51485100000001 10.480654772387657 12.999999999999998
  endloop
endfacet
facet normal -1.2098400253965159e-32 -1.0 -1.1568283782818113e-31
  outer loop
    vertex 117.51485100000001 10.480654772387679 12.999999999999998
    vertex 117.48077682628907 10.480654772387679 12.741180954897478
    vertex 119.51485100000001 10.480654772387657 12.999999999999998
  endloop
endfacet
facet normal -1.2098400253965159e-32 -1.0 -1.1568283782818113e-31
  outer loop
    vertex 117.48077682628907 10.480654772387679 13.258819045102522
    vertex 117.51485100000001 10.480654772387679 12.999999999999998
    vertex 119.51485100000001 10.480654772387657 12.999999999999998
  endloop
endfacet
facet normal -1.2098400253965159e-32 -1.0 -1.1568283782818113e-31
  outer loop
    vertex 119.41262847886722 10.480654772387657 13.776457135307565
    vertex 117.48077682628907 10.480654772387679 13.258819045102522
    vertex 119.51485100000001 10.480654772387657 12.999999999999998
  endloop
endfacet
facet normal -1.2098400253965159e-32 -1.0 -1.1568283782818113e-31
  outer loop
    vertex 117.38087640378444 10.480654772387679 13.499999999999998
    vertex 117.48077682628907 10.480654772387679 13.258819045102522
    vertex 119.41262847886722 10.480654772387657 13.776457135307565
  endloop
endfacet
facet normal -1.2098400253965159e-32 -1.0 -1.1568283782818113e-31
  outer loop
    vertex 117.22195778118656 10.480654772387679 13.707106781186544
    vertex 117.38087640378444 10.480654772387679 13.499999999999998
    vertex 119.41262847886722 10.480654772387657 13.776457135307565
  endloop
endfacet
facet normal -1.2098400253965159e-32 -1.0 -1.1568283782818113e-31
  outer loop
    vertex 117.01485100000001 10.480654772387679 13.866025403784437
    vertex 117.22195778118656 10.480654772387679 13.707106781186544
    vertex 119.41262847886722 10.480654772387657 13.776457135307565
  endloop
endfacet
facet normal -1.2098400253965159e-32 -1.0 -1.1568283782818113e-31
  outer loop
    vertex 119.11292721135334 10.480654772387657 14.499999999999998
    vertex 117.01485100000001 10.480654772387679 13.866025403784437
    vertex 119.41262847886722 10.480654772387657 13.776457135307565
  endloop
endfacet
facet normal -1.2098400253965159e-32 -1.0 -1.1568283782818113e-31
  outer loop
    vertex 116.77367004510252 10.480654772387679 13.965925826289068
    vertex 117.01485100000001 10.480654772387679 13.866025403784437
    vertex 119.11292721135334 10.480654772387657 14.499999999999998
  endloop
endfacet
facet normal -1.2098400253965159e-32 -1.0 -1.1568283782818113e-31
  outer loop
    vertex 116.51485100000001 10.480654772387679 13.999999999999996
    vertex 116.77367004510252 10.480654772387679 13.965925826289068
    vertex 119.11292721135334 10.480654772387657 14.499999999999998
  endloop
endfacet
facet normal -1.2098400253965159e-32 -1.0 -1.1568283782818113e-31
  outer loop
    vertex 113.91677478864669 10.480654772387657 14.499999999999998
    vertex 116.51485100000001 10.480654772387679 13.999999999999996
    vertex 119.11292721135334 10.480654772387657 14.499999999999998
  endloop
endfacet
facet normal -1.2098400253965159e-32 -1.0 -1.1568283782818113e-31
  outer loop
    vertex 114.39353065644036 10.480654772387657 15.12132034355964
    vertex 113.91677478864669 10.480654772387657 14.499999999999998
    vertex 119.11292721135334 10.480654772387657 14.499999999999998
  endloop
endfacet
facet normal -1.2098400253965159e-32 -1.0 -1.1568283782818113e-31
  outer loop
    vertex 118.63617134355965 10.480654772387657 15.12132034355964
    vertex 114.39353065644036 10.480654772387657 15.12132034355964
    vertex 119.11292721135334 10.480654772387657 14.499999999999998
  endloop
endfacet
facet normal -1.2098400253965159e-32 -1.0 -1.1568283782818113e-31
  outer loop
    vertex 115.01485100000001 10.480654772387657 15.598076211353314
    vertex 114.39353065644036 10.480654772387657 15.12132034355964
    vertex 118.63617134355965 10.480654772387657 15.12132034355964
  endloop
endfacet
facet normal -1.2098400253965159e-32 -1.0 -1.1568283782818113e-31
  outer loop
    vertex 118.01485100000001 10.480654772387657 15.598076211353316
    vertex 115.01485100000001 10.480654772387657 15.598076211353314
    vertex 118.63617134355965 10.480654772387657 15.12132034355964
  endloop
endfacet
facet normal -1.2098400253965159e-32 -1.0 -1.1568283782818113e-31
  outer loop
    vertex 115.73839386469245 10.480654772387657 15.897777478867203
    vertex 115.01485100000001 10.480654772387657 15.598076211353314
    vertex 118.01485100000001 10.480654772387657 15.598076211353316
  endloop
endfacet
facet normal -1.2098400253965159e-32 -1.0 -1.1568283782818113e-31
  outer loop
    vertex 117.29130813530757 10.480654772387657 15.897777478867203
    vertex 115.73839386469245 10.480654772387657 15.897777478867203
    vertex 118.01485100000001 10.480654772387657 15.598076211353316
  endloop
endfacet
facet normal -1.2098400253965159e-32 -1.0 -1.1568283782818113e-31
  outer loop
    vertex 116.51485100000001 10.480654772387657 15.999999999999998
    vertex 115.73839386469245 10.480654772387657 15.897777478867203
    vertex 117.29130813530757 10.480654772387657 15.897777478867203
  endloop
endfacet
facet normal -0.9914448613738114 0.0 0.1305261922200446
  outer loop
    vertex 113.61707352113281 12.480654772387654 13.776457135307561
    vertex 113.51485100000002 12.480654772387654 12.999999999999998
    vertex 113.61707352113281 10.480654772387657 13.776457135307561
  endloop
endfacet
facet normal -0.9914448613738114 0.0 0.1305261922200446
  outer loop
    vertex 113.51485100000002 10.480654772387657 12.999999999999998
    vertex 113.61707352113281 10.480654772387657 13.776457135307561
    vertex 113.51485100000002 12.480654772387654 12.999999999999998
  endloop
endfacet
facet normal -0.92387953251129 0.0 0.3826834323650821
  outer loop
    vertex 113.91677478864669 12.480654772387654 14.499999999999998
    vertex 113.61707352113281 12.480654772387654 13.776457135307561
    vertex 113.91677478864669 10.480654772387657 14.499999999999998
  endloop
endfacet
facet normal -0.92387953251129 0.0 0.3826834323650821
  outer loop
    vertex 113.61707352113281 10.480654772387657 13.776457135307561
    vertex 113.91677478864669 10.480654772387657 14.499999999999998
    vertex 113.61707352113281 12.480654772387654 13.776457135307561
  endloop
endfacet
facet normal -0.7933533402912337 0.0 0.6087614290087224
  outer loop
    vertex 114.39353065644036 12.480654772387654 15.12132034355964
    vertex 113.91677478864669 12.480654772387654 14.499999999999998
    vertex 114.39353065644036 10.480654772387657 15.12132034355964
  endloop
endfacet
facet normal -0.7933533402912337 0.0 0.6087614290087224
  outer loop
    vertex 113.91677478864669 10.480654772387657 14.499999999999998
    vertex 114.39353065644036 10.480654772387657 15.12132034355964
    vertex 113.91677478864669 12.480654772387654 14.499999999999998
  endloop
endfacet
facet normal -0.608761429008715 0.0 0.7933533402912395
  outer loop
    vertex 114.39353065644036 12.480654772387654 15.12132034355964
    vertex 114.39353065644036 10.480654772387657 15.12132034355964
    vertex 115.01485100000001 12.480654772387654 15.598076211353314
  endloop
endfacet
facet normal -0.608761429008715 0.0 0.7933533402912395
  outer loop
    vertex 115.01485100000001 10.480654772387657 15.598076211353314
    vertex 115.01485100000001 12.480654772387654 15.598076211353314
    vertex 114.39353065644036 10.480654772387657 15.12132034355964
  endloop
endfacet
facet normal -0.38268343236509006 0.0 0.9238795325112867
  outer loop
    vertex 115.01485100000001 12.480654772387654 15.598076211353314
    vertex 115.01485100000001 10.480654772387657 15.598076211353314
    vertex 115.73839386469245 12.480654772387654 15.897777478867203
  endloop
endfacet
facet normal -0.38268343236509006 0.0 0.9238795325112867
  outer loop
    vertex 115.73839386469245 10.480654772387657 15.897777478867203
    vertex 115.73839386469245 12.480654772387654 15.897777478867203
    vertex 115.01485100000001 10.480654772387657 15.598076211353314
  endloop
endfacet
facet normal -0.13052619222005263 0.0 0.9914448613738103
  outer loop
    vertex 115.73839386469245 12.480654772387654 15.897777478867203
    vertex 115.73839386469245 10.480654772387657 15.897777478867203
    vertex 116.51485100000001 12.480654772387654 15.999999999999998
  endloop
endfacet
facet normal -0.13052619222005263 0.0 0.9914448613738103
  outer loop
    vertex 116.51485100000001 10.480654772387657 15.999999999999998
    vertex 116.51485100000001 12.480654772387654 15.999999999999998
    vertex 115.73839386469245 10.480654772387657 15.897777478867203
  endloop
endfacet
facet normal 0.13052619222005263 0.0 0.9914448613738103
  outer loop
    vertex 116.51485100000001 12.480654772387654 15.999999999999998
    vertex 116.51485100000001 10.480654772387657 15.999999999999998
    vertex 117.29130813530757 12.480654772387654 15.897777478867203
  endloop
endfacet
facet normal 0.13052619222005263 0.0 0.9914448613738103
  outer loop
    vertex 117.29130813530757 10.480654772387657 15.897777478867203
    vertex 117.29130813530757 12.480654772387654 15.897777478867203
    vertex 116.51485100000001 10.480654772387657 15.999999999999998
  endloop
endfacet
facet normal 0.38268343236508695 0.0 0.923879532511288
  outer loop
    vertex 117.29130813530757 12.480654772387654 15.897777478867203
    vertex 117.29130813530757 10.480654772387657 15.897777478867203
    vertex 118.01485100000001 12.480654772387654 15.598076211353316
  endloop
endfacet
facet normal 0.38268343236508695 0.0 0.923879532511288
  outer loop
    vertex 118.01485100000001 10.480654772387657 15.598076211353316
    vertex 118.01485100000001 12.480654772387654 15.598076211353316
    vertex 117.29130813530757 10.480654772387657 15.897777478867203
  endloop
endfacet
facet normal 0.6087614290087172 0.0 0.7933533402912378
  outer loop
    vertex 118.01485100000001 12.480654772387654 15.598076211353316
    vertex 118.01485100000001 10.480654772387657 15.598076211353316
    vertex 118.63617134355965 12.480654772387654 15.12132034355964
  endloop
endfacet
facet normal 0.6087614290087172 0.0 0.7933533402912378
  outer loop
    vertex 118.63617134355965 10.480654772387657 15.12132034355964
    vertex 118.63617134355965 12.480654772387654 15.12132034355964
    vertex 118.01485100000001 10.480654772387657 15.598076211353316
  endloop
endfacet
facet normal 0.7933533402912337 0.0 0.6087614290087224
  outer loop
    vertex 119.11292721135334 12.480654772387654 14.499999999999998
    vertex 118.63617134355965 12.480654772387654 15.12132034355964
    vertex 119.11292721135334 10.480654772387657 14.499999999999998
  endloop
endfacet
facet normal 0.7933533402912337 0.0 0.6087614290087224
  outer loop
    vertex 118.63617134355965 10.480654772387657 15.12132034355964
    vertex 119.11292721135334 10.480654772387657 14.499999999999998
    vertex 118.63617134355965 12.480654772387654 15.12132034355964
  endloop
endfacet
facet normal 0.9238795325112894 0.0 0.38268343236508334
  outer loop
    vertex 119.41262847886722 12.480654772387654 13.776457135307565
    vertex 119.11292721135334 12.480654772387654 14.499999999999998
    vertex 119.41262847886722 10.480654772387657 13.776457135307565
  endloop
endfacet
facet normal 0.9238795325112894 0.0 0.38268343236508334
  outer loop
    vertex 119.11292721135334 10.480654772387657 14.499999999999998
    vertex 119.41262847886722 10.480654772387657 13.776457135307565
    vertex 119.11292721135334 12.480654772387654 14.499999999999998
  endloop
endfacet
facet normal 0.9914448613738114 0.0 0.13052619222004413
  outer loop
    vertex 119.51485100000001 12.480654772387654 12.999999999999998
    vertex 119.41262847886722 12.480654772387654 13.776457135307565
    vertex 119.51485100000001 10.480654772387657 12.999999999999998
  endloop
endfacet
facet normal 0.9914448613738114 0.0 0.13052619222004413
  outer loop
    vertex 119.41262847886722 10.480654772387657 13.776457135307565
    vertex 119.51485100000001 10.480654772387657 12.999999999999998
    vertex 119.41262847886722 12.480654772387654 13.776457135307565
  endloop
endfacet
facet normal 0.6087614290087128 1.0514855216589286e-30 0.7933533402912413
  outer loop
    vertex 115.80774421881347 12.480654772387654 12.29289321881345
    vertex 115.80774421881347 10.480654772387679 12.29289321881345
    vertex 116.01485100000001 12.480654772387654 12.133974596215559
  endloop
endfacet
facet normal 0.6087614290087128 1.0514855216589286e-30 0.7933533402912413
  outer loop
    vertex 116.01485100000001 10.480654772387679 12.133974596215559
    vertex 116.01485100000001 12.480654772387654 12.133974596215559
    vertex 115.80774421881347 10.480654772387679 12.29289321881345
  endloop
endfacet
facet normal 0.38268343236507985 1.2244808244407502e-30 0.923879532511291
  outer loop
    vertex 116.01485100000001 12.480654772387654 12.133974596215559
    vertex 116.01485100000001 10.480654772387679 12.133974596215559
    vertex 116.2560319548975 12.480654772387654 12.034074173710929
  endloop
endfacet
facet normal 0.38268343236507985 1.2244808244407502e-30 0.923879532511291
  outer loop
    vertex 116.2560319548975 10.480654772387679 12.034074173710929
    vertex 116.2560319548975 12.480654772387654 12.034074173710929
    vertex 116.01485100000001 10.480654772387679 12.133974596215559
  endloop
endfacet
facet normal 0.13052619222005635 1.3140297825871705e-30 0.9914448613738099
  outer loop
    vertex 116.2560319548975 12.480654772387654 12.034074173710929
    vertex 116.2560319548975 10.480654772387679 12.034074173710929
    vertex 116.51485100000001 12.480654772387654 11.999999999999998
  endloop
endfacet
facet normal 0.13052619222005635 1.3140297825871705e-30 0.9914448613738099
  outer loop
    vertex 116.51485100000001 10.480654772387679 11.999999999999998
    vertex 116.51485100000001 12.480654772387654 11.999999999999998
    vertex 116.2560319548975 10.480654772387679 12.034074173710929
  endloop
endfacet
facet normal -0.13052619222005635 1.3140297825871705e-30 0.9914448613738099
  outer loop
    vertex 116.51485100000001 12.480654772387654 11.999999999999998
    vertex 116.51485100000001 10.480654772387679 11.999999999999998
    vertex 116.77367004510252 12.480654772387654 12.034074173710929
  endloop
endfacet
facet normal -0.13052619222005635 1.3140297825871705e-30 0.9914448613738099
  outer loop
    vertex 116.77367004510252 10.480654772387679 12.034074173710929
    vertex 116.77367004510252 12.480654772387654 12.034074173710929
    vertex 116.51485100000001 10.480654772387679 11.999999999999998
  endloop
endfacet
facet normal -0.38268343236507985 1.2244808244407507e-30 0.923879532511291
  outer loop
    vertex 116.77367004510252 12.480654772387654 12.034074173710929
    vertex 116.77367004510252 10.480654772387679 12.034074173710929
    vertex 117.01485100000001 12.480654772387654 12.133974596215559
  endloop
endfacet
facet normal -0.38268343236507985 1.2244808244407507e-30 0.923879532511291
  outer loop
    vertex 117.01485100000001 10.480654772387679 12.133974596215559
    vertex 117.01485100000001 12.480654772387654 12.133974596215559
    vertex 116.77367004510252 10.480654772387679 12.034074173710929
  endloop
endfacet
facet normal -0.6087614290087161 1.051485521658926e-30 0.7933533402912386
  outer loop
    vertex 117.01485100000001 12.480654772387654 12.133974596215559
    vertex 117.01485100000001 10.480654772387679 12.133974596215559
    vertex 117.22195778118656 12.480654772387654 12.292893218813452
  endloop
endfacet
facet normal -0.6087614290087161 1.051485521658926e-30 0.7933533402912386
  outer loop
    vertex 117.22195778118656 10.480654772387679 12.292893218813452
    vertex 117.22195778118656 12.480654772387654 12.292893218813452
    vertex 117.01485100000001 10.480654772387679 12.133974596215559
  endloop
endfacet
facet normal -0.7933533402912477 8.068332182380046e-31 0.6087614290087043
  outer loop
    vertex 117.38087640378444 12.480654772387654 12.5
    vertex 117.22195778118656 12.480654772387654 12.292893218813452
    vertex 117.38087640378444 10.480654772387679 12.5
  endloop
endfacet
facet normal -0.7933533402912477 8.068332182380046e-31 0.6087614290087043
  outer loop
    vertex 117.22195778118656 10.480654772387679 12.292893218813452
    vertex 117.38087640378444 10.480654772387679 12.5
    vertex 117.22195778118656 12.480654772387654 12.292893218813452
  endloop
endfacet
facet normal -0.92387953251129 5.071965643491357e-31 0.38268343236508207
  outer loop
    vertex 117.48077682628907 12.480654772387654 12.741180954897478
    vertex 117.38087640378444 12.480654772387654 12.5
    vertex 117.48077682628907 10.480654772387679 12.741180954897478
  endloop
endfacet
facet normal -0.92387953251129 5.071965643491357e-31 0.38268343236508207
  outer loop
    vertex 117.38087640378444 10.480654772387679 12.5
    vertex 117.48077682628907 10.480654772387679 12.741180954897478
    vertex 117.38087640378444 12.480654772387654 12.5
  endloop
endfacet
facet normal -0.9914448613738077 1.7299530278185338e-31 0.13052619222007342
  outer loop
    vertex 117.51485100000001 12.480654772387654 12.999999999999998
    vertex 117.48077682628907 12.480654772387654 12.741180954897478
    vertex 117.51485100000001 10.480654772387679 12.999999999999998
  endloop
endfacet
facet normal -0.9914448613738077 1.7299530278185338e-31 0.13052619222007342
  outer loop
    vertex 117.48077682628907 10.480654772387679 12.741180954897478
    vertex 117.51485100000001 10.480654772387679 12.999999999999998
    vertex 117.48077682628907 12.480654772387654 12.741180954897478
  endloop
endfacet
facet normal -0.9914448613738077 -1.7299530278185022e-31 -0.13052619222007197
  outer loop
    vertex 117.48077682628907 12.480654772387654 13.258819045102522
    vertex 117.51485100000001 12.480654772387654 12.999999999999998
    vertex 117.48077682628907 10.480654772387679 13.258819045102522
  endloop
endfacet
facet normal -0.9914448613738077 -1.7299530278185022e-31 -0.13052619222007197
  outer loop
    vertex 117.51485100000001 10.480654772387679 12.999999999999998
    vertex 117.48077682628907 10.480654772387679 13.258819045102522
    vertex 117.51485100000001 12.480654772387654 12.999999999999998
  endloop
endfacet
facet normal -0.9238795325112884 -5.071965643491396e-31 -0.38268343236508595
  outer loop
    vertex 117.38087640378444 12.480654772387654 13.499999999999998
    vertex 117.48077682628907 12.480654772387654 13.258819045102522
    vertex 117.38087640378444 10.480654772387679 13.499999999999998
  endloop
endfacet
facet normal -0.9238795325112884 -5.071965643491396e-31 -0.38268343236508595
  outer loop
    vertex 117.48077682628907 10.480654772387679 13.258819045102522
    vertex 117.38087640378444 10.480654772387679 13.499999999999998
    vertex 117.48077682628907 12.480654772387654 13.258819045102522
  endloop
endfacet
facet normal -0.7933533402912477 -8.068332182380035e-31 -0.6087614290087043
  outer loop
    vertex 117.22195778118656 12.480654772387654 13.707106781186544
    vertex 117.38087640378444 12.480654772387654 13.499999999999998
    vertex 117.22195778118656 10.480654772387679 13.707106781186544
  endloop
endfacet
facet normal -0.7933533402912477 -8.068332182380035e-31 -0.6087614290087043
  outer loop
    vertex 117.38087640378444 10.480654772387679 13.499999999999998
    vertex 117.22195778118656 10.480654772387679 13.707106781186544
    vertex 117.38087640378444 12.480654772387654 13.499999999999998
  endloop
endfacet
facet normal -0.6087614290087195 -1.0514855216589218e-30 -0.793353340291236
  outer loop
    vertex 117.01485100000001 10.480654772387679 13.866025403784437
    vertex 117.01485100000001 12.480654772387654 13.866025403784437
    vertex 117.22195778118656 10.480654772387679 13.707106781186544
  endloop
endfacet
facet normal -0.6087614290087195 -1.0514855216589218e-30 -0.793353340291236
  outer loop
    vertex 117.22195778118656 12.480654772387654 13.707106781186544
    vertex 117.22195778118656 10.480654772387679 13.707106781186544
    vertex 117.01485100000001 12.480654772387654 13.866025403784437
  endloop
endfacet
facet normal -0.38268343236507985 -1.2244808244407502e-30 -0.923879532511291
  outer loop
    vertex 116.77367004510252 10.480654772387679 13.965925826289068
    vertex 116.77367004510252 12.480654772387654 13.965925826289068
    vertex 117.01485100000001 10.480654772387679 13.866025403784437
  endloop
endfacet
facet normal -0.38268343236507985 -1.2244808244407502e-30 -0.923879532511291
  outer loop
    vertex 117.01485100000001 12.480654772387654 13.866025403784437
    vertex 117.01485100000001 10.480654772387679 13.866025403784437
    vertex 116.77367004510252 12.480654772387654 13.965925826289068
  endloop
endfacet
facet normal -0.13052619222004574 -1.3140297825871723e-30 -0.9914448613738113
  outer loop
    vertex 116.51485100000001 10.480654772387679 13.999999999999996
    vertex 116.51485100000001 12.480654772387654 13.999999999999996
    vertex 116.77367004510252 10.480654772387679 13.965925826289068
  endloop
endfacet
facet normal -0.13052619222004574 -1.3140297825871723e-30 -0.9914448613738113
  outer loop
    vertex 116.77367004510252 12.480654772387654 13.965925826289068
    vertex 116.77367004510252 10.480654772387679 13.965925826289068
    vertex 116.51485100000001 12.480654772387654 13.999999999999996
  endloop
endfacet
facet normal 0.13052619222005635 -1.3140297825871705e-30 -0.9914448613738099
  outer loop
    vertex 116.2560319548975 10.480654772387679 13.965925826289066
    vertex 116.2560319548975 12.480654772387654 13.965925826289066
    vertex 116.51485100000001 10.480654772387679 13.999999999999996
  endloop
endfacet
facet normal 0.13052619222005635 -1.3140297825871705e-30 -0.9914448613738099
  outer loop
    vertex 116.51485100000001 12.480654772387654 13.999999999999996
    vertex 116.51485100000001 10.480654772387679 13.999999999999996
    vertex 116.2560319548975 12.480654772387654 13.965925826289066
  endloop
endfacet
facet normal 0.38268343236507063 -1.2244808244407556e-30 -0.9238795325112947
  outer loop
    vertex 116.01485100000001 10.480654772387679 13.866025403784437
    vertex 116.01485100000001 12.480654772387654 13.866025403784437
    vertex 116.2560319548975 10.480654772387679 13.965925826289066
  endloop
endfacet
facet normal 0.38268343236507063 -1.2244808244407556e-30 -0.9238795325112947
  outer loop
    vertex 116.2560319548975 12.480654772387654 13.965925826289066
    vertex 116.2560319548975 10.480654772387679 13.965925826289066
    vertex 116.01485100000001 12.480654772387654 13.866025403784437
  endloop
endfacet
facet normal 0.6087614290087195 -1.0514855216589225e-30 -0.793353340291236
  outer loop
    vertex 115.80774421881347 10.480654772387679 13.707106781186544
    vertex 115.80774421881347 12.480654772387654 13.707106781186544
    vertex 116.01485100000001 10.480654772387679 13.866025403784437
  endloop
endfacet
facet normal 0.6087614290087195 -1.0514855216589225e-30 -0.793353340291236
  outer loop
    vertex 116.01485100000001 12.480654772387654 13.866025403784437
    vertex 116.01485100000001 10.480654772387679 13.866025403784437
    vertex 115.80774421881347 12.480654772387654 13.707106781186544
  endloop
endfacet
facet normal 0.7933533402912477 -8.068332182380046e-31 -0.6087614290087043
  outer loop
    vertex 115.64882559621557 12.480654772387654 13.499999999999998
    vertex 115.80774421881347 12.480654772387654 13.707106781186544
    vertex 115.64882559621557 10.480654772387679 13.499999999999998
  endloop
endfacet
facet normal 0.7933533402912477 -8.068332182380046e-31 -0.6087614290087043
  outer loop
    vertex 115.80774421881347 10.480654772387679 13.707106781186544
    vertex 115.64882559621557 10.480654772387679 13.499999999999998
    vertex 115.80774421881347 12.480654772387654 13.707106781186544
  endloop
endfacet
facet normal 0.92387953251129 -5.071965643491357e-31 -0.38268343236508207
  outer loop
    vertex 115.54892517371096 12.480654772387654 13.258819045102518
    vertex 115.64882559621557 12.480654772387654 13.499999999999998
    vertex 115.54892517371096 10.480654772387679 13.258819045102518
  endloop
endfacet
facet normal 0.92387953251129 -5.071965643491357e-31 -0.38268343236508207
  outer loop
    vertex 115.64882559621557 10.480654772387679 13.499999999999998
    vertex 115.54892517371096 10.480654772387679 13.258819045102518
    vertex 115.64882559621557 12.480654772387654 13.499999999999998
  endloop
endfacet
facet normal 0.9914448613738077 -1.7299530278185338e-31 -0.13052619222007342
  outer loop
    vertex 115.51485100000001 12.480654772387654 12.999999999999998
    vertex 115.54892517371096 12.480654772387654 13.258819045102518
    vertex 115.51485100000001 10.480654772387679 12.999999999999998
  endloop
endfacet
facet normal 0.9914448613738077 -1.7299530278185338e-31 -0.13052619222007342
  outer loop
    vertex 115.54892517371096 10.480654772387679 13.258819045102518
    vertex 115.51485100000001 10.480654772387679 12.999999999999998
    vertex 115.54892517371096 12.480654772387654 13.258819045102518
  endloop
endfacet
facet normal 0.9914448613738077 1.729953027818521e-31 0.13052619222007342
  outer loop
    vertex 115.54892517371096 12.480654772387654 12.741180954897478
    vertex 115.51485100000001 12.480654772387654 12.999999999999998
    vertex 115.54892517371096 10.480654772387679 12.741180954897478
  endloop
endfacet
facet normal 0.9914448613738077 1.729953027818521e-31 0.13052619222007342
  outer loop
    vertex 115.51485100000001 10.480654772387679 12.999999999999998
    vertex 115.54892517371096 10.480654772387679 12.741180954897478
    vertex 115.51485100000001 12.480654772387654 12.999999999999998
  endloop
endfacet
facet normal 0.9238795325112907 5.07196564349132e-31 0.3826834323650802
  outer loop
    vertex 115.64882559621557 12.480654772387654 12.499999999999996
    vertex 115.54892517371096 12.480654772387654 12.741180954897478
    vertex 115.64882559621557 10.480654772387679 12.499999999999996
  endloop
endfacet
facet normal 0.9238795325112907 5.07196564349132e-31 0.3826834323650802
  outer loop
    vertex 115.54892517371096 10.480654772387679 12.741180954897478
    vertex 115.64882559621557 10.480654772387679 12.499999999999996
    vertex 115.54892517371096 12.480654772387654 12.741180954897478
  endloop
endfacet
facet normal 0.7933533402912477 8.068332182380035e-31 0.6087614290087043
  outer loop
    vertex 115.80774421881347 12.480654772387654 12.29289321881345
    vertex 115.64882559621557 12.480654772387654 12.499999999999996
    vertex 115.80774421881347 10.480654772387679 12.29289321881345
  endloop
endfacet
facet normal 0.7933533402912477 8.068332182380035e-31 0.6087614290087043
  outer loop
    vertex 115.64882559621557 10.480654772387679 12.499999999999996
    vertex 115.80774421881347 10.480654772387679 12.29289321881345
    vertex 115.64882559621557 12.480654772387654 12.499999999999996
  endloop
endfacet
endsolid linked-remake
